<svg width="18" height="16" viewBox="0 0 18 16" fill="none" xmlns="http://www.w3.org/2000/svg">
<path d="M8.23045 15.7247C8.1774 15.7247 8.12492 15.7137 8.07631 15.6924C8.02771 15.6712 7.98403 15.6401 7.94803 15.6011L0.333141 7.36399C0.282378 7.30907 0.248725 7.24055 0.236302 7.16681C0.223878 7.09306 0.233222 7.0173 0.263191 6.94878C0.293159 6.88026 0.342452 6.82197 0.405036 6.78104C0.46762 6.7401 0.540781 6.7183 0.615564 6.7183H4.28095C4.33598 6.7183 4.39037 6.73011 4.44045 6.75293C4.49053 6.77575 4.53514 6.80904 4.57126 6.85056L7.11618 9.77841C7.39122 9.19049 7.92364 8.21156 8.85795 7.01872C10.2392 5.25526 12.8083 2.66176 17.2039 0.320525C17.2888 0.275283 17.3877 0.263542 17.4809 0.287618C17.5741 0.311694 17.6548 0.369838 17.7072 0.45057C17.7597 0.531301 17.7799 0.62875 17.764 0.723675C17.748 0.8186 17.6971 0.904101 17.6212 0.963294C17.6044 0.97641 15.9096 2.31103 13.9592 4.7556C12.1641 7.00522 9.77787 10.6837 8.60368 15.4325C8.58305 15.516 8.53508 15.5901 8.46741 15.6431C8.39974 15.696 8.31628 15.7248 8.23033 15.7248L8.23045 15.7247Z" fill="#21D3A0"/>
</svg>
