<svg width="184" height="30" viewBox="0 0 184 30" fill="none" xmlns="http://www.w3.org/2000/svg">
<path fill-rule="evenodd" clip-rule="evenodd" d="M13.1375 0.958496C11.1564 9.22391 6.32628 14.5823 0 18.4141C6.56212 16.6872 10.4595 12.2413 13.6104 7.03435L16.9185 14.171L17.3908 10.9887L13.1375 0.958496Z" fill="#F5C943"/>
<path fill-rule="evenodd" clip-rule="evenodd" d="M10.6799 3.94771L8.31709 2.30811C8.04855 7.73838 5.07628 12.8247 1.51221 16.0994C6.10016 13.6121 8.84601 9.24515 10.6799 3.94771Z" fill="#F5C943"/>
<path fill-rule="evenodd" clip-rule="evenodd" d="M6.71065 4.62307L4.91509 3.36914C5.09559 6.11123 4.30064 9.2037 1.89062 14.3632C4.2258 11.8592 6.36915 9.16007 6.71065 4.62243V4.62307Z" fill="#F5C943"/>
<path d="M22.5433 24.5048C17.4575 22.3497 11.9831 21.5966 5.92181 23.0836L11.3866 15.5762L12.6752 15.0614L9.188 20.2027L8.67729 20.9557L9.58672 20.9832C14.2228 21.1231 18.6343 21.8887 22.5433 24.5048Z" fill="#3BAFDD" stroke="#3BAFDD"/>
<path d="M8.7981 26.6926L8.91777 25.0361C12.4223 24.4084 15.7448 24.3428 18.8104 25.1774C15.4956 24.8497 11.9598 25.2532 8.7981 26.6926Z" fill="#3BAFDD" stroke="#3BAFDD"/>
<path d="M11.4818 28.113C13.9553 26.9628 16.1676 26.7919 18.302 27.0346C15.24 27.4625 13.1089 28.1017 11.411 29.0563L11.4818 28.113Z" fill="#3BAFDD" stroke="#3BAFDD"/>
<path fill-rule="evenodd" clip-rule="evenodd" d="M19.6873 0C17.8717 6.66175 19.6968 12.3288 22.5407 17.7167L14.8296 17.0718L17.2943 19.0804L27.9337 20.3369C21.9093 14.4536 19.7767 7.50626 19.6873 0Z" fill="white"/>
<path fill-rule="evenodd" clip-rule="evenodd" d="M20.8958 2.49365C20.7128 7.79173 23.0467 12.4012 26.6252 16.6706L29.1981 15.4026C24.7234 12.4507 21.8932 7.28092 20.8958 2.49365Z" fill="white"/>
<path fill-rule="evenodd" clip-rule="evenodd" d="M28.0371 12.8256L29.9994 11.8656C27.5818 10.654 25.3548 8.40542 22.1807 3.6958C23.1385 7.01095 24.3573 10.2549 28.0378 12.8256H28.0371Z" fill="white"/>
<path d="M44.8879 21.1088C43.8479 21.1088 42.9087 20.9268 42.0702 20.5628C41.2382 20.1923 40.5525 19.6658 40.013 18.9834C39.48 18.2944 39.142 17.4754 38.999 16.5264L41.768 16.1169C41.963 16.9229 42.366 17.5436 42.9769 17.9791C43.5879 18.4146 44.2834 18.6324 45.0634 18.6324C45.4989 18.6324 45.9214 18.5641 46.3309 18.4276C46.7404 18.2911 47.0751 18.0896 47.3351 17.8231C47.6016 17.5566 47.7348 17.2284 47.7348 16.8384C47.7348 16.6954 47.7121 16.5589 47.6666 16.4289C47.6276 16.2924 47.5593 16.1657 47.4618 16.0487C47.3643 15.9317 47.2246 15.8212 47.0426 15.7172C46.8671 15.6132 46.6429 15.5189 46.3699 15.4344L42.7234 14.362C42.4504 14.284 42.132 14.1735 41.768 14.0305C41.4105 13.8875 41.0627 13.6827 40.7247 13.4162C40.3867 13.1497 40.104 12.7987 39.8765 12.3632C39.6555 11.9213 39.545 11.3655 39.545 10.696C39.545 9.75355 39.7823 8.97032 40.2567 8.34633C40.7312 7.72234 41.365 7.2576 42.158 6.95211C42.9509 6.64662 43.8284 6.49712 44.7904 6.50362C45.7589 6.51662 46.6234 6.68237 47.3838 7.00086C48.1443 7.31935 48.7813 7.78409 49.2948 8.39508C49.8083 8.99957 50.1788 9.74055 50.4063 10.618L47.5398 11.1055C47.4358 10.6505 47.2441 10.267 46.9646 9.95505C46.6851 9.64305 46.3504 9.40581 45.9604 9.24331C45.5769 9.08082 45.1739 8.99307 44.7514 8.98007C44.3354 8.96707 43.9422 9.02557 43.5717 9.15556C43.2077 9.27906 42.9087 9.46106 42.6747 9.70155C42.4472 9.94205 42.3335 10.228 42.3335 10.5595C42.3335 10.865 42.4277 11.1153 42.6162 11.3103C42.8047 11.4988 43.0419 11.6515 43.3279 11.7685C43.6139 11.8855 43.9064 11.983 44.2054 12.061L46.6429 12.724C47.0069 12.8215 47.4098 12.9515 47.8518 13.114C48.2938 13.27 48.7163 13.491 49.1193 13.777C49.5288 14.0565 49.8635 14.427 50.1235 14.8884C50.39 15.3499 50.5233 15.9349 50.5233 16.6434C50.5233 17.3974 50.364 18.0571 50.0455 18.6226C49.7335 19.1816 49.3111 19.6463 48.7781 20.0168C48.2451 20.3808 47.6406 20.6538 46.9646 20.8358C46.2951 21.0178 45.6029 21.1088 44.8879 21.1088Z" fill="white"/>
<path d="M55.9227 20.8163V9.25306H51.4963V6.77661H63.001V9.25306H58.5746V20.8163H55.9227Z" fill="white"/>
<path d="M64.5679 20.8163V6.77661H73.7327V9.25306H67.2198V12.256H72.5627V14.7324H67.2198V18.3399H73.7327V20.8163H64.5679Z" fill="white"/>
<path d="M76.0696 20.8163V6.77661H78.4485L83.0894 16.0974L87.7303 6.77661H90.1093V20.8163H87.6328V12.4315L83.5574 20.8163H82.6214L78.546 12.4315V20.8163H76.0696Z" fill="white"/>
<path d="M95.7748 20.8163L100.065 6.77661H104.023L108.313 20.8163H105.583L101.761 8.43408H102.268L98.5047 20.8163H95.7748ZM98.3487 17.8914V15.4149H105.759V17.8914H98.3487Z" fill="white"/>
<path d="M114.701 21.1088C113.609 21.1088 112.673 20.8651 111.893 20.3776C111.114 19.8901 110.516 19.2271 110.1 18.3886C109.684 17.5501 109.476 16.6044 109.476 15.5514C109.476 14.4855 109.69 13.5332 110.119 12.6947C110.555 11.8563 111.166 11.1965 111.952 10.7155C112.738 10.2345 113.668 9.99405 114.74 9.99405C115.982 9.99405 117.022 10.3093 117.86 10.9398C118.705 11.5638 119.245 12.4185 119.479 13.504L116.827 14.206C116.671 13.66 116.398 13.2342 116.008 12.9287C115.624 12.6232 115.189 12.4705 114.701 12.4705C114.142 12.4705 113.684 12.607 113.327 12.88C112.969 13.1465 112.706 13.5137 112.537 13.9817C112.368 14.4432 112.283 14.9664 112.283 15.5514C112.283 16.4679 112.485 17.2121 112.888 17.7841C113.297 18.3496 113.902 18.6324 114.701 18.6324C115.299 18.6324 115.754 18.4959 116.066 18.2229C116.378 17.9499 116.612 17.5599 116.768 17.0529L119.479 17.6184C119.18 18.7364 118.614 19.5976 117.782 20.2021C116.95 20.8066 115.923 21.1088 114.701 21.1088Z" fill="white"/>
<path d="M124.163 21.1088C123.409 21.1088 122.769 20.9658 122.243 20.6798C121.723 20.3873 121.326 20.0006 121.053 19.5196C120.787 19.0321 120.654 18.4959 120.654 17.9109C120.654 17.4234 120.728 16.9781 120.878 16.5752C121.027 16.1722 121.268 15.8179 121.599 15.5124C121.937 15.2004 122.389 14.9404 122.954 14.7324C123.344 14.5894 123.809 14.4627 124.349 14.3522C124.888 14.2417 125.499 14.1377 126.182 14.0402C126.864 13.9362 127.615 13.8225 128.434 13.699L127.478 14.2255C127.478 13.6015 127.329 13.1432 127.03 12.8507C126.731 12.5582 126.23 12.412 125.528 12.412C125.138 12.412 124.732 12.5062 124.31 12.6947C123.887 12.8832 123.591 13.218 123.422 13.699L121.024 12.9385C121.291 12.0675 121.791 11.359 122.525 10.813C123.26 10.267 124.261 9.99405 125.528 9.99405C126.458 9.99405 127.283 10.137 128.005 10.423C128.726 10.709 129.272 11.203 129.643 11.905C129.851 12.295 129.974 12.685 130.013 13.075C130.052 13.465 130.072 13.9005 130.072 14.3815V20.8163H127.751V18.6519L128.083 19.1004C127.569 19.8088 127.014 20.3223 126.416 20.6408C125.824 20.9528 125.073 21.1088 124.163 21.1088ZM124.729 19.0224C125.216 19.0224 125.626 18.9379 125.957 18.7689C126.295 18.5934 126.562 18.3951 126.757 18.1741C126.958 17.9531 127.095 17.7679 127.166 17.6184C127.303 17.3324 127.381 17.0009 127.4 16.6239C127.426 16.2404 127.439 15.9219 127.439 15.6684L128.219 15.8634C127.433 15.9934 126.796 16.1039 126.308 16.1949C125.821 16.2794 125.428 16.3574 125.129 16.4289C124.83 16.5004 124.566 16.5784 124.339 16.6629C124.079 16.7669 123.868 16.8806 123.705 17.0041C123.549 17.1211 123.432 17.2511 123.354 17.3941C123.283 17.5371 123.247 17.6964 123.247 17.8719C123.247 18.1124 123.305 18.3204 123.422 18.4959C123.546 18.6649 123.718 18.7949 123.939 18.8859C124.16 18.9769 124.423 19.0224 124.729 19.0224Z" fill="white"/>
<path d="M136.877 21.1088C135.909 21.1088 135.061 20.8651 134.333 20.3776C133.605 19.8901 133.036 19.2271 132.626 18.3886C132.223 17.5501 132.022 16.6044 132.022 15.5514C132.022 14.479 132.227 13.5267 132.636 12.6947C133.052 11.8563 133.634 11.1965 134.381 10.7155C135.129 10.2345 136.006 9.99405 137.014 9.99405C138.015 9.99405 138.857 10.2378 139.539 10.7253C140.222 11.2128 140.738 11.8758 141.089 12.7142C141.44 13.5527 141.616 14.4985 141.616 15.5514C141.616 16.6044 141.437 17.5501 141.079 18.3886C140.729 19.2271 140.202 19.8901 139.5 20.3776C138.798 20.8651 137.924 21.1088 136.877 21.1088ZM137.306 18.7494C137.898 18.7494 138.369 18.6161 138.72 18.3496C139.078 18.0831 139.334 17.7094 139.49 17.2284C139.646 16.7474 139.724 16.1884 139.724 15.5514C139.724 14.9144 139.646 14.3555 139.49 13.8745C139.334 13.3935 139.084 13.0197 138.74 12.7532C138.402 12.4867 137.956 12.3535 137.404 12.3535C136.812 12.3535 136.325 12.4997 135.941 12.7922C135.564 13.0782 135.285 13.465 135.103 13.9525C134.921 14.4335 134.83 14.9664 134.83 15.5514C134.83 16.1429 134.918 16.6824 135.093 17.1699C135.269 17.6509 135.538 18.0344 135.902 18.3204C136.266 18.6064 136.734 18.7494 137.306 18.7494ZM139.724 20.8163V13.6015H139.393V6.77661H142.064V20.8163H139.724Z" fill="white"/>
<path d="M149.689 21.1088C148.61 21.1088 147.657 20.8781 146.832 20.4166C146.013 19.9486 145.369 19.3083 144.901 18.4959C144.44 17.6769 144.209 16.7409 144.209 15.6879C144.209 14.5374 144.437 13.5365 144.892 12.685C145.347 11.8335 145.974 11.1738 146.773 10.7058C147.573 10.2313 148.493 9.99405 149.533 9.99405C150.638 9.99405 151.577 10.254 152.35 10.774C153.124 11.294 153.696 12.0253 154.066 12.9677C154.437 13.9102 154.567 15.0184 154.456 16.2924H151.834V15.3174C151.834 14.245 151.661 13.4747 151.317 13.0067C150.979 12.5322 150.423 12.295 149.65 12.295C148.746 12.295 148.08 12.5712 147.651 13.1237C147.228 13.6697 147.017 14.479 147.017 15.5514C147.017 16.5329 147.228 17.2934 147.651 17.8329C148.08 18.3659 148.707 18.6324 149.533 18.6324C150.053 18.6324 150.498 18.5186 150.868 18.2911C151.239 18.0636 151.522 17.7354 151.717 17.3064L154.368 18.0669C153.972 19.0289 153.345 19.7763 152.487 20.3093C151.635 20.8423 150.703 21.1088 149.689 21.1088ZM146.198 16.2924V14.323H153.179V16.2924H146.198Z" fill="white"/>
<path d="M169.047 20.8163V14.5959C169.047 13.9005 168.881 13.361 168.55 12.9775C168.225 12.5875 167.773 12.3925 167.194 12.3925C166.824 12.3925 166.502 12.4802 166.229 12.6557C165.956 12.8247 165.742 13.0652 165.586 13.3772C165.436 13.6827 165.361 14.037 165.361 14.44L164.25 13.699C164.25 12.9775 164.419 12.3405 164.757 11.788C165.101 11.2355 165.56 10.8065 166.132 10.501C166.71 10.189 167.35 10.033 168.052 10.033C169.255 10.033 170.161 10.3905 170.772 11.1055C171.39 11.814 171.699 12.7435 171.699 13.894V20.8163H169.047ZM156.353 20.8163V10.2865H158.692V13.777H159.024V20.8163H156.353ZM162.709 20.8163V14.5959C162.709 13.9005 162.544 13.361 162.212 12.9775C161.887 12.5875 161.435 12.3925 160.857 12.3925C160.304 12.3925 159.859 12.5842 159.521 12.9677C159.19 13.3447 159.024 13.8355 159.024 14.44L157.913 13.66C157.913 12.971 158.085 12.3535 158.429 11.8075C158.774 11.2615 159.235 10.8293 159.814 10.5108C160.399 10.1923 161.052 10.033 161.773 10.033C162.599 10.033 163.275 10.2085 163.801 10.5595C164.334 10.9105 164.728 11.3785 164.981 11.9635C165.235 12.5485 165.361 13.192 165.361 13.894V20.8163H162.709Z" fill="white"/>
<path d="M175.199 25.4962L177.227 19.9193L177.266 21.5573L172.683 10.2865H175.433L178.514 18.2619H177.89L180.951 10.2865H183.603L177.656 25.4962H175.199Z" fill="white"/>
</svg>
