<svg width="10" height="10" viewBox="0 0 10 10" fill="none" xmlns="http://www.w3.org/2000/svg">
<path d="M2.27008 10V3.25302H0.126472V10H2.27008ZM1.19855 2.33128C1.94607 2.33128 2.41136 1.81319 2.41136 1.16575C2.39743 0.503709 1.94609 0 1.21274 0C0.479496 0 0 0.503719 0 1.16575C0 1.81322 0.465176 2.33128 1.18456 2.33128H1.19855ZM3.45656 10H5.60017V6.23215C5.60017 6.0305 5.61409 5.82906 5.6707 5.68491C5.82567 5.28202 6.17837 4.86475 6.77053 4.86475C7.54621 4.86475 7.85653 5.48346 7.85653 6.39046V9.99995H10V6.13129C10 4.05889 8.94246 3.09462 7.53209 3.09462C6.37571 3.09462 5.86797 3.77084 5.5859 4.23141H5.60021V3.25288H3.45661C3.48474 3.88598 3.45656 10 3.45656 10Z" fill="#C1C8CA"/>
</svg>
