<svg width="12" height="12" viewBox="0 0 12 12" fill="none" xmlns="http://www.w3.org/2000/svg">
<path d="M5.99841 3.33184C4.52194 3.33184 3.33035 4.52342 3.33035 5.99989C3.33035 7.47636 4.52194 8.66794 5.99841 8.66794C7.47488 8.66794 8.66646 7.47636 8.66646 5.99989C8.66646 4.52342 7.47488 3.33184 5.99841 3.33184ZM5.99841 7.73393C5.04358 7.73393 4.26437 6.95472 4.26437 5.99989C4.26437 5.04506 5.04358 4.26585 5.99841 4.26585C6.95323 4.26585 7.73245 5.04506 7.73245 5.99989C7.73245 6.95472 6.95323 7.73393 5.99841 7.73393ZM8.77573 2.60076C8.43101 2.60076 8.15262 2.87914 8.15262 3.22387C8.15262 3.56859 8.43101 3.84698 8.77573 3.84698C9.12046 3.84698 9.39884 3.56989 9.39884 3.22387C9.39894 3.14201 9.3829 3.06094 9.35162 2.98529C9.32034 2.90965 9.27445 2.84091 9.21657 2.78303C9.15868 2.72515 9.08995 2.67926 9.01431 2.64798C8.93866 2.6167 8.85759 2.60065 8.77573 2.60076ZM11.1992 5.99989C11.1992 5.28182 11.2057 4.57025 11.1654 3.85348C11.1251 3.02093 10.9352 2.28205 10.3264 1.67325C9.71625 1.06315 8.97867 0.874523 8.14612 0.834197C7.42805 0.79387 6.71648 0.800375 5.99971 0.800375C5.28164 0.800375 4.57007 0.79387 3.8533 0.834197C3.02075 0.874523 2.28187 1.06445 1.67307 1.67325C1.06296 2.28335 0.87434 3.02093 0.834014 3.85348C0.793687 4.57155 0.800192 5.28312 0.800192 5.99989C0.800192 6.71666 0.793687 7.42953 0.834014 8.1463C0.87434 8.97885 1.06427 9.71773 1.67307 10.3265C2.28317 10.9366 3.02075 11.1253 3.8533 11.1656C4.57137 11.2059 5.28294 11.1994 5.99971 11.1994C6.71778 11.1994 7.42935 11.2059 8.14612 11.1656C8.97867 11.1253 9.71755 10.9353 10.3264 10.3265C10.9365 9.71643 11.1251 8.97885 11.1654 8.1463C11.207 7.42953 11.1992 6.71796 11.1992 5.99989ZM10.0545 9.06731C9.95951 9.30406 9.84503 9.48098 9.66161 9.6631C9.47819 9.84652 9.30258 9.96099 9.06582 10.056C8.38157 10.3278 6.7568 10.2667 5.99841 10.2667C5.24001 10.2667 3.61394 10.3278 2.92969 10.0573C2.69294 9.96229 2.51602 9.84782 2.3339 9.6644C2.15048 9.48098 2.036 9.30536 1.94104 9.06861C1.67046 8.38306 1.7316 6.75829 1.7316 5.99989C1.7316 5.24149 1.67046 3.61542 1.94104 2.93117C2.036 2.69442 2.15048 2.5175 2.3339 2.33538C2.51732 2.15326 2.69294 2.03749 2.92969 1.94253C3.61394 1.67195 5.24001 1.73309 5.99841 1.73309C6.7568 1.73309 8.38287 1.67195 9.06712 1.94253C9.30388 2.03749 9.4808 2.15196 9.66292 2.33538C9.84634 2.5188 9.96081 2.69442 10.0558 2.93117C10.3264 3.61542 10.2652 5.24149 10.2652 5.99989C10.2652 6.75829 10.3264 8.38306 10.0545 9.06731Z" fill="#C1C8CA"/>
</svg>
