<svg width="233" height="40" viewBox="0 0 233 40" fill="none" xmlns="http://www.w3.org/2000/svg">
<path fill-rule="evenodd" clip-rule="evenodd" d="M17.517 1.27835C14.8755 12.2991 8.43522 19.4438 0 24.5529C8.74969 22.2504 13.9463 16.3224 18.1476 9.37966L22.5585 18.8954L23.1883 14.6522L17.517 1.27835Z" fill="#F5C943"/>
<path fill-rule="evenodd" clip-rule="evenodd" d="M14.2405 5.26398L11.09 3.07779C10.7319 10.3183 6.7688 17.1002 2.0166 21.4666C8.134 18.1501 11.7952 12.3274 14.2405 5.26398Z" fill="#F5C943"/>
<path fill-rule="evenodd" clip-rule="evenodd" d="M8.94783 6.16413L6.5537 4.49219C6.79437 8.14839 5.73441 12.2718 2.521 19.1512C5.63462 15.8125 8.49249 12.2136 8.94783 6.16327V6.16413Z" fill="#F5C943"/>
<path d="M31.4826 33.4916C24.1867 30.0713 16.3061 28.7775 7.49035 31.0526L15.076 20.6316L17.3439 19.7255L12.3889 27.0309L11.8782 27.7839L12.7876 27.8113C19.5155 28.0144 25.9133 29.2041 31.4826 33.4916Z" fill="#3BAFDD" stroke="#3BAFDD"/>
<path d="M11.5447 35.8611L11.7339 33.2413C17.1497 32.2564 22.2586 32.265 26.8958 33.9756C21.9078 33.1646 16.3789 33.5844 11.5447 35.8611Z" fill="#3BAFDD" stroke="#3BAFDD"/>
<path d="M15.1504 37.3754C18.9991 35.5619 22.3787 35.513 25.6508 36.0539C20.7334 36.6411 17.5218 37.5725 15.0253 39.0443L15.1504 37.3754Z" fill="#3BAFDD" stroke="#3BAFDD"/>
<path fill-rule="evenodd" clip-rule="evenodd" d="M26.2506 0C23.8296 8.88252 26.2632 16.4388 30.0552 23.6228L19.7734 22.7629L23.0598 25.4411L37.246 27.1165C29.2133 19.2718 26.3697 10.0086 26.2506 0Z" fill="#222C30"/>
<path fill-rule="evenodd" clip-rule="evenodd" d="M27.8615 3.32507C27.6175 10.3893 30.7295 16.5355 35.5009 22.2281L38.9316 20.5374C32.9651 16.6014 29.1915 9.70823 27.8615 3.32507Z" fill="#222C30"/>
<path fill-rule="evenodd" clip-rule="evenodd" d="M37.3835 17.1011L39.9999 15.821C36.7764 14.2055 33.807 11.2073 29.5747 4.9277C30.8519 9.348 32.477 13.6733 37.3844 17.1011H37.3835Z" fill="#222C30"/>
<path d="M60.3304 30.2249C59.0358 30.2249 57.8667 29.9853 56.8229 29.5062C55.7873 29.0186 54.9337 28.3255 54.2622 27.4272C53.5987 26.5203 53.178 25.4423 53 24.1931L56.4467 23.6541C56.6894 24.715 57.1911 25.5321 57.9516 26.1053C58.7122 26.6786 59.5779 26.9652 60.5488 26.9652C61.0909 26.9652 61.6168 26.8754 62.1265 26.6957C62.6363 26.516 63.0529 26.2508 63.3766 25.9C63.7083 25.5492 63.8742 25.1172 63.8742 24.6038C63.8742 24.4156 63.8458 24.2359 63.7892 24.0648C63.7407 23.8851 63.6557 23.7183 63.5343 23.5643C63.413 23.4103 63.239 23.2649 63.0125 23.128C62.794 22.9911 62.5149 22.867 62.1751 22.7558L57.6361 21.3441C57.2963 21.2414 56.8998 21.096 56.4467 20.9078C56.0017 20.7195 55.5689 20.45 55.1481 20.0992C54.7274 19.7485 54.3755 19.2865 54.0923 18.7132C53.8172 18.1314 53.6796 17.3999 53.6796 16.5187C53.6796 15.2781 53.975 14.2472 54.5656 13.4258C55.1562 12.6045 55.9451 11.9927 56.9322 11.5906C57.9193 11.1885 59.0115 10.9917 60.209 11.0003C61.4145 11.0174 62.4906 11.2355 63.4373 11.6548C64.3839 12.074 65.1768 12.6857 65.816 13.49C66.4552 14.2857 66.9163 15.261 67.1995 16.416L63.6314 17.0577C63.502 16.4588 63.2633 15.954 62.9154 15.5433C62.5675 15.1327 62.1508 14.8204 61.6653 14.6065C61.188 14.3926 60.6864 14.2771 60.1604 14.26C59.6426 14.2429 59.1531 14.3199 58.6919 14.491C58.2389 14.6535 57.8667 14.8931 57.5754 15.2097C57.2922 15.5262 57.1506 15.9027 57.1506 16.339C57.1506 16.7411 57.2679 17.0705 57.5026 17.3272C57.7372 17.5753 58.0325 17.7764 58.3885 17.9304C58.7445 18.0844 59.1086 18.2127 59.4808 18.3154L62.5149 19.1881C62.968 19.3164 63.4696 19.4875 64.0198 19.7014C64.57 19.9067 65.0959 20.1976 65.5975 20.5741C66.1073 20.942 66.5239 21.4297 66.8476 22.0371C67.1793 22.6446 67.3452 23.4146 67.3452 24.3471C67.3452 25.3396 67.1469 26.208 66.7505 26.9524C66.3621 27.6881 65.8362 28.2999 65.1728 28.7875C64.5093 29.2667 63.7568 29.626 62.9154 29.8656C62.082 30.1051 61.2204 30.2249 60.3304 30.2249Z" fill="#222C30"/>
<path d="M74.0662 29.8399V14.6193H68.5563V11.3596H82.8772V14.6193H77.3673V29.8399H74.0662Z" fill="#222C30"/>
<path d="M84.8276 29.8399V11.3596H96.2357V14.6193H88.1286V18.5721H94.7794V21.8318H88.1286V26.5802H96.2357V29.8399H84.8276Z" fill="#222C30"/>
<path d="M99.1447 29.8399V11.3596H102.106L107.883 23.6285L113.66 11.3596H116.621V29.8399H113.538V18.8031L108.465 29.8399H107.3L102.227 18.8031V29.8399H99.1447Z" fill="#222C30"/>
<path d="M123.673 29.8399L129.013 11.3596H133.941L139.281 29.8399H135.882L131.125 13.5413H131.756L127.072 29.8399H123.673ZM126.877 25.9898V22.7301H136.101V25.9898H126.877Z" fill="#222C30"/>
<path d="M147.233 30.2249C145.874 30.2249 144.708 29.9041 143.738 29.2624C142.767 28.6207 142.022 27.748 141.504 26.6444C140.987 25.5407 140.728 24.2958 140.728 22.9098C140.728 21.5067 140.995 20.2532 141.529 19.1496C142.071 18.0459 142.831 17.1775 143.81 16.5444C144.789 15.9112 145.946 15.5947 147.281 15.5947C148.827 15.5947 150.121 16.0096 151.165 16.8395C152.217 17.6609 152.888 18.7859 153.18 20.2147L149.879 21.1388C149.684 20.4201 149.345 19.8597 148.859 19.4576C148.382 19.0555 147.84 18.8544 147.233 18.8544C146.537 18.8544 145.967 19.0341 145.522 19.3934C145.077 19.7442 144.749 20.2276 144.539 20.8436C144.328 21.451 144.223 22.1398 144.223 22.9098C144.223 24.1161 144.474 25.0958 144.975 25.8487C145.485 26.593 146.238 26.9652 147.233 26.9652C147.977 26.9652 148.544 26.7855 148.932 26.4262C149.32 26.0668 149.612 25.5535 149.806 24.8862L153.18 25.6305C152.807 27.1021 152.104 28.2357 151.068 29.0314C150.032 29.8271 148.754 30.2249 147.233 30.2249Z" fill="#222C30"/>
<path d="M159.011 30.2249C158.072 30.2249 157.275 30.0367 156.62 29.6602C155.973 29.2752 155.479 28.7662 155.139 28.133C154.808 27.4914 154.642 26.7855 154.642 26.0155C154.642 25.3738 154.735 24.7878 154.921 24.2573C155.107 23.7269 155.406 23.2606 155.819 22.8585C156.24 22.4478 156.802 22.1056 157.506 21.8318C157.992 21.6435 158.57 21.4767 159.242 21.3313C159.913 21.1858 160.674 21.0489 161.523 20.9206C162.373 20.7837 163.307 20.634 164.327 20.4714L163.137 21.1644C163.137 20.3431 162.951 19.7399 162.579 19.3549C162.207 18.9699 161.584 18.7774 160.71 18.7774C160.225 18.7774 159.719 18.9014 159.193 19.1496C158.667 19.3977 158.299 19.8383 158.089 20.4714L155.103 19.4704C155.435 18.3239 156.058 17.3914 156.972 16.6727C157.886 15.954 159.132 15.5947 160.71 15.5947C161.867 15.5947 162.895 15.7829 163.793 16.1593C164.691 16.5358 165.37 17.186 165.832 18.11C166.09 18.6234 166.244 19.1367 166.293 19.6501C166.341 20.1634 166.366 20.7366 166.366 21.3698V29.8399H163.477V26.9909L163.89 27.5812C163.251 28.5138 162.559 29.1897 161.814 29.6089C161.078 30.0196 160.144 30.2249 159.011 30.2249ZM159.715 27.4785C160.322 27.4785 160.831 27.3673 161.244 27.1449C161.665 26.9139 161.997 26.6529 162.239 26.362C162.49 26.0711 162.66 25.8273 162.749 25.6305C162.919 25.254 163.016 24.8177 163.04 24.3215C163.073 23.8167 163.089 23.3975 163.089 23.0638L164.06 23.3205C163.081 23.4916 162.288 23.637 161.681 23.7568C161.074 23.868 160.585 23.9707 160.212 24.0648C159.84 24.1589 159.513 24.2616 159.229 24.3728C158.906 24.5097 158.643 24.6594 158.441 24.822C158.246 24.976 158.101 25.1471 158.004 25.3353C157.915 25.5236 157.87 25.7332 157.87 25.9642C157.87 26.2807 157.943 26.5545 158.089 26.7855C158.242 27.008 158.457 27.1791 158.732 27.2989C159.007 27.4186 159.335 27.4785 159.715 27.4785Z" fill="#222C30"/>
<path d="M174.837 30.2249C173.631 30.2249 172.576 29.9041 171.669 29.2624C170.763 28.6207 170.055 27.748 169.546 26.6444C169.044 25.5407 168.793 24.2958 168.793 22.9098C168.793 21.4981 169.048 20.2447 169.558 19.1496C170.075 18.0459 170.8 17.1775 171.73 16.5444C172.66 15.9112 173.753 15.5947 175.007 15.5947C176.253 15.5947 177.301 15.9155 178.15 16.5572C179 17.1989 179.643 18.0715 180.08 19.1752C180.517 20.2789 180.735 21.5238 180.735 22.9098C180.735 24.2958 180.513 25.5407 180.068 26.6444C179.631 27.748 178.975 28.6207 178.102 29.2624C177.228 29.9041 176.14 30.2249 174.837 30.2249ZM175.371 27.1192C176.107 27.1192 176.694 26.9438 177.131 26.593C177.576 26.2422 177.895 25.7503 178.089 25.1172C178.284 24.484 178.381 23.7482 178.381 22.9098C178.381 22.0713 178.284 21.3355 178.089 20.7024C177.895 20.0693 177.584 19.5773 177.155 19.2266C176.734 18.8758 176.18 18.7004 175.492 18.7004C174.756 18.7004 174.149 18.8929 173.672 19.2779C173.203 19.6544 172.855 20.1634 172.628 20.8051C172.402 21.4382 172.288 22.1398 172.288 22.9098C172.288 23.6884 172.398 24.3985 172.616 25.0402C172.834 25.6733 173.17 26.1781 173.623 26.5545C174.076 26.931 174.659 27.1192 175.371 27.1192ZM178.381 29.8399V20.3431H177.968V11.3596H181.293V29.8399H178.381Z" fill="#222C30"/>
<path d="M190.784 30.2249C189.441 30.2249 188.256 29.9212 187.228 29.3137C186.209 28.6977 185.408 27.855 184.825 26.7855C184.251 25.7075 183.963 24.4755 183.963 23.0895C183.963 21.5751 184.247 20.2575 184.813 19.1367C185.379 18.0159 186.16 17.1475 187.155 16.5315C188.151 15.907 189.295 15.5947 190.59 15.5947C191.965 15.5947 193.135 15.9369 194.097 16.6214C195.06 17.3058 195.772 18.2683 196.233 19.5089C196.695 20.7495 196.856 22.2082 196.719 23.8851H193.454V22.6018C193.454 21.1901 193.24 20.1762 192.811 19.5602C192.39 18.9357 191.698 18.6234 190.736 18.6234C189.611 18.6234 188.782 18.987 188.248 19.7142C187.722 20.4329 187.459 21.4981 187.459 22.9098C187.459 24.2017 187.722 25.2027 188.248 25.9128C188.782 26.6144 189.562 26.9652 190.59 26.9652C191.237 26.9652 191.791 26.8155 192.253 26.516C192.714 26.2166 193.066 25.7845 193.308 25.2198L196.61 26.2208C196.116 27.4871 195.335 28.471 194.267 29.1726C193.207 29.8741 192.046 30.2249 190.784 30.2249ZM186.439 23.8851V21.2928H195.129V23.8851H186.439Z" fill="#222C30"/>
<path d="M214.881 29.8399V21.6521C214.881 20.7366 214.674 20.0265 214.262 19.5217C213.857 19.0084 213.295 18.7517 212.575 18.7517C212.114 18.7517 211.713 18.8672 211.373 19.0982C211.034 19.3207 210.767 19.6372 210.572 20.0479C210.386 20.45 210.293 20.9163 210.293 21.4468L208.91 20.4714C208.91 19.5217 209.12 18.6833 209.541 17.956C209.97 17.2288 210.54 16.6641 211.252 16.262C211.972 15.8513 212.769 15.646 213.643 15.646C215.14 15.646 216.268 16.1166 217.029 17.0577C217.798 17.9903 218.182 19.2137 218.182 20.7281V29.8399H214.881ZM199.079 29.8399V15.9797H201.992V20.5741H202.405V29.8399H199.079ZM206.992 29.8399V21.6521C206.992 20.7366 206.786 20.0265 206.373 19.5217C205.969 19.0084 205.406 18.7517 204.686 18.7517C203.999 18.7517 203.444 19.0041 203.024 19.5089C202.611 20.0051 202.405 20.6511 202.405 21.4468L201.021 20.4201C201.021 19.5132 201.236 18.7004 201.664 17.9817C202.093 17.263 202.668 16.6941 203.388 16.2749C204.116 15.8556 204.929 15.646 205.827 15.646C206.855 15.646 207.696 15.877 208.351 16.339C209.015 16.801 209.504 17.417 209.82 18.187C210.135 18.9571 210.293 19.8041 210.293 20.7281V29.8399H206.992Z" fill="#222C30"/>
<path d="M222.538 36L225.063 28.6592L225.111 30.8153L219.407 15.9797H222.83L226.665 26.4775H225.888L229.699 15.9797H233L225.597 36H222.538Z" fill="#222C30"/>
</svg>
