<svg width="44" height="44" viewBox="0 0 44 44" fill="none" xmlns="http://www.w3.org/2000/svg">
<path d="M35.0564 44C32.373 44 29.982 42.6439 27.8662 39.9134C25.7505 37.2012 24.7012 33.6093 24.7012 29.1378C24.7012 25.3444 26.6277 19.5352 30.4636 11.7284C34.3167 3.90336 37.1721 2.1805e-06 39.0471 2.50832e-06C40.0964 2.69178e-06 40.6296 0.58642 40.6296 1.74094C40.6296 2.05248 39.5287 4.58144 37.3442 9.34612C35.1424 14.1108 34.0587 17.8492 34.0587 20.5248C34.0587 22.5956 35.2972 24.2999 37.7914 25.6193C40.2684 26.9388 41.9369 28.3132 42.7626 29.7426C43.5882 31.172 44.0011 32.7297 44.0011 34.379C44.0011 37.3661 43.1754 39.7301 41.5241 41.4344C39.8211 43.1387 37.6882 44 35.0564 44Z" fill="#C1C8CA"/>
<path d="M10.3551 44C7.67175 44 5.26357 42.6439 3.16502 39.9134C1.04926 37.2012 -5.87644e-06 33.6093 -5.09462e-06 29.1378C-4.43136e-06 25.3444 1.92654 19.5352 5.76242 11.7284C9.5983 3.90336 12.4709 2.18048e-06 14.3286 2.5053e-06C15.3779 2.68876e-06 15.9112 0.58642 15.9112 1.74094C15.9112 2.05248 14.8103 4.58144 12.6257 9.34612C10.424 14.1108 9.34029 17.8492 9.34028 20.5248C9.34028 22.5956 10.5788 24.2999 13.073 25.6193C15.5499 26.9388 17.2185 28.3132 18.0441 29.7426C18.8698 31.172 19.2826 32.7297 19.2826 34.379C19.2826 37.3661 18.4569 39.7301 16.8056 41.4344C15.1543 43.1387 12.9869 44 10.3551 44Z" fill="#C1C8CA"/>
</svg>
