<svg width="14" height="14" viewBox="0 0 14 14" fill="none" xmlns="http://www.w3.org/2000/svg">
<mask id="path-1-inside-1_7645_1886" fill="white">
<path d="M0.480498 5.04191L5.61511 0.445781C5.679 0.388821 5.75798 0.351557 5.84252 0.338471C5.92707 0.325384 6.0136 0.337033 6.09169 0.372016C6.16978 0.407 6.23612 0.463827 6.28271 0.535662C6.32931 0.607497 6.35418 0.69128 6.35434 0.776933V2.96387C10.8541 2.97943 14.3593 8.29787 13.549 13.3629C13.5305 13.4185 13.5012 13.4698 13.4628 13.514C13.4243 13.5581 13.3776 13.5943 13.3252 13.6203C13.2728 13.6463 13.2158 13.6617 13.1574 13.6656C13.0991 13.6695 13.0405 13.6618 12.9852 13.643C12.9165 13.6193 12.8548 13.5792 12.8052 13.5261C12.7557 13.4731 12.7199 13.4086 12.701 13.3385C11.7931 9.98475 9.24908 7.7378 6.35434 7.78225V9.96252C6.35418 10.0482 6.32931 10.132 6.28271 10.2038C6.23612 10.2756 6.16978 10.3325 6.09169 10.3674C6.0136 10.4024 5.92707 10.4141 5.84252 10.401C5.75798 10.3879 5.679 10.3506 5.61511 10.2937L0.480498 5.70421C0.43399 5.66252 0.396787 5.61148 0.371317 5.55442C0.345847 5.49736 0.332681 5.43556 0.332681 5.37306C0.332681 5.31056 0.345847 5.24876 0.371317 5.1917C0.396787 5.13464 0.43399 5.0836 0.480498 5.04191V5.04191ZM5.46638 8.97573V7.36887C5.46762 7.30735 5.48123 7.24671 5.5064 7.19057C5.53158 7.13444 5.56779 7.08396 5.61289 7.04216C5.68466 6.9778 5.77466 6.93741 5.8704 6.92659C8.68966 6.66878 11.2603 8.28676 12.7143 10.9804C12.3192 6.8688 9.42223 3.6973 5.91924 3.85287C5.80149 3.85287 5.68856 3.80604 5.6053 3.72268C5.52203 3.63932 5.47526 3.52626 5.47526 3.40837V1.77039L1.44171 5.37306L5.46638 8.97573Z"/>
</mask>
<path d="M0.480498 5.04191L5.61511 0.445781C5.679 0.388821 5.75798 0.351557 5.84252 0.338471C5.92707 0.325384 6.0136 0.337033 6.09169 0.372016C6.16978 0.407 6.23612 0.463827 6.28271 0.535662C6.32931 0.607497 6.35418 0.69128 6.35434 0.776933V2.96387C10.8541 2.97943 14.3593 8.29787 13.549 13.3629C13.5305 13.4185 13.5012 13.4698 13.4628 13.514C13.4243 13.5581 13.3776 13.5943 13.3252 13.6203C13.2728 13.6463 13.2158 13.6617 13.1574 13.6656C13.0991 13.6695 13.0405 13.6618 12.9852 13.643C12.9165 13.6193 12.8548 13.5792 12.8052 13.5261C12.7557 13.4731 12.7199 13.4086 12.701 13.3385C11.7931 9.98475 9.24908 7.7378 6.35434 7.78225V9.96252C6.35418 10.0482 6.32931 10.132 6.28271 10.2038C6.23612 10.2756 6.16978 10.3325 6.09169 10.3674C6.0136 10.4024 5.92707 10.4141 5.84252 10.401C5.75798 10.3879 5.679 10.3506 5.61511 10.2937L0.480498 5.70421C0.43399 5.66252 0.396787 5.61148 0.371317 5.55442C0.345847 5.49736 0.332681 5.43556 0.332681 5.37306C0.332681 5.31056 0.345847 5.24876 0.371317 5.1917C0.396787 5.13464 0.43399 5.0836 0.480498 5.04191V5.04191ZM5.46638 8.97573V7.36887C5.46762 7.30735 5.48123 7.24671 5.5064 7.19057C5.53158 7.13444 5.56779 7.08396 5.61289 7.04216C5.68466 6.9778 5.77466 6.93741 5.8704 6.92659C8.68966 6.66878 11.2603 8.28676 12.7143 10.9804C12.3192 6.8688 9.42223 3.6973 5.91924 3.85287C5.80149 3.85287 5.68856 3.80604 5.6053 3.72268C5.52203 3.63932 5.47526 3.52626 5.47526 3.40837V1.77039L1.44171 5.37306L5.46638 8.97573Z" fill="white"/>
<path d="M5.61511 0.445781L0.279462 -5.515L0.285533 -5.52043L0.291616 -5.52585L5.61511 0.445781ZM6.35434 0.776933L14.3543 0.762216L14.3543 0.769575V0.776933H6.35434ZM6.35434 2.96387L6.32668 10.9638L-1.64566 10.9363V2.96387H6.35434ZM13.549 13.3629L21.4486 14.6266L21.345 15.2738L21.1376 15.8954L13.549 13.3629ZM12.9852 13.643L10.4101 21.2172L10.3944 21.2119L10.3788 21.2065L12.9852 13.643ZM12.701 13.3385L20.423 11.248L20.4253 11.2563L12.701 13.3385ZM6.35434 7.78225H-1.64566V-0.0958488L6.23151 -0.216806L6.35434 7.78225ZM6.35434 9.96252H14.3543V9.96988L14.3543 9.97724L6.35434 9.96252ZM5.61511 10.2937L0.291611 16.2653L0.283763 16.2583L5.61511 10.2937ZM0.480498 5.70421L-4.85086 11.6688L-4.85949 11.6611L0.480498 5.70421ZM5.46638 8.97573H13.4664V26.8739L0.130659 14.9364L5.46638 8.97573ZM5.46638 7.36887H-2.53362V7.28828L-2.532 7.20771L5.46638 7.36887ZM5.61289 7.04216L0.174192 1.17525L0.222667 1.13032L0.271877 1.08619L5.61289 7.04216ZM5.8704 6.92659L4.97201 -1.02281L5.05685 -1.0324L5.14187 -1.04017L5.8704 6.92659ZM12.7143 10.9804L20.6776 10.2151L5.67448 14.7805L12.7143 10.9804ZM5.91924 3.85287L6.27418 11.845L6.0968 11.8529H5.91924V3.85287ZM5.6053 3.72268L-0.054876 9.37622L5.6053 3.72268ZM5.47526 1.77039L0.146068 -4.19616L13.4753 -16.1015V1.77039H5.47526ZM1.44171 5.37306L-3.89401 11.3338L-10.5603 5.36649L-3.88748 -0.593491L1.44171 5.37306ZM-4.85515 -0.918867L0.279462 -5.515L10.9508 6.40656L5.81615 11.0027L-4.85515 -0.918867ZM0.291616 -5.52585C1.50643 -6.60882 3.00899 -7.31822 4.61886 -7.56739L7.06619 8.24433C8.50696 8.02133 9.85157 7.38646 10.9386 6.41741L0.291616 -5.52585ZM4.61886 -7.56739C6.22876 -7.81657 7.87607 -7.59467 9.36229 -6.92888L2.82109 7.67292C4.15113 8.26874 5.62539 8.46734 7.06619 8.24433L4.61886 -7.56739ZM9.36229 -6.92888C10.8484 -6.26314 12.1094 -5.18234 12.9944 -3.81783L-0.429006 4.88915C0.362879 6.10999 1.49113 7.07713 2.82109 7.67292L9.36229 -6.92888ZM12.9944 -3.81783C13.8794 -2.45341 14.3513 -0.862978 14.3543 0.762216L-1.64565 0.791651C-1.64298 2.24554 -1.22083 3.66841 -0.429006 4.88915L12.9944 -3.81783ZM14.3543 0.776933V2.96387H-1.64566V0.776933H14.3543ZM6.38199 -5.03608C11.9553 -5.01681 16.1672 -1.74111 18.556 1.76792C20.9664 5.30868 22.1968 9.94936 21.4486 14.6266L5.64945 12.0993C5.67598 11.9334 5.67533 11.7045 5.61212 11.4358C5.54769 11.162 5.43719 10.9294 5.32985 10.7718C5.21883 10.6087 5.18123 10.625 5.31835 10.7088C5.47991 10.8075 5.835 10.9621 6.32668 10.9638L6.38199 -5.03608ZM21.1376 15.8954C20.7858 16.9497 20.2292 17.9245 19.4993 18.7637L7.4262 8.26421C6.77316 9.01512 6.27519 9.88729 5.96043 10.8305L21.1376 15.8954ZM19.4993 18.7637C18.7695 19.603 17.8807 20.2901 16.8837 20.7853L9.76674 6.45528C8.87455 6.89838 8.07925 7.51329 7.4262 8.26421L19.4993 18.7637ZM16.8837 20.7853C15.8867 21.2804 14.8014 21.5737 13.6902 21.6478L12.6247 5.68336C11.6302 5.74974 10.6589 6.01217 9.76674 6.45528L16.8837 20.7853ZM13.6902 21.6478C12.579 21.722 11.4643 21.5756 10.4101 21.2172L15.5602 6.06873C14.6168 5.74802 13.6192 5.61698 12.6247 5.68336L13.6902 21.6478ZM10.3788 21.2065C9.07285 20.7565 7.89795 19.9932 6.95644 18.9843L18.654 8.06798C17.8116 7.16525 16.7602 6.4822 15.5916 6.07947L10.3788 21.2065ZM6.95644 18.9843C6.01499 17.9755 5.33555 16.7518 4.97673 15.4207L20.4253 11.2563C20.1043 10.0655 19.4964 8.97065 18.654 8.06798L6.95644 18.9843ZM4.97898 15.429C4.8936 15.1136 4.80655 15.1328 4.99555 15.2987C5.21105 15.4878 5.73196 15.7928 6.47716 15.7813L6.23151 -0.216806C13.7459 -0.332193 18.8356 5.38431 20.423 11.248L4.97898 15.429ZM14.3543 7.78225V9.96252H-1.64566V7.78225H14.3543ZM14.3543 9.97724C14.3513 11.6024 13.8794 13.1929 12.9944 14.5573L-0.429006 5.85031C-1.22083 7.07105 -1.64298 8.49391 -1.64565 9.94781L14.3543 9.97724ZM12.9944 14.5573C12.1093 15.9218 10.8484 17.0026 9.36229 17.6683L2.82109 3.06654C1.49116 3.66231 0.362893 4.62944 -0.429006 5.85031L12.9944 14.5573ZM9.36229 17.6683C7.87611 18.3341 6.2288 18.556 4.61886 18.3068L7.06619 2.49512C5.62534 2.27211 4.15109 2.47073 2.82109 3.06654L9.36229 17.6683ZM4.61886 18.3068C3.00897 18.0577 1.50642 17.3483 0.291616 16.2653L10.9386 4.32204C9.85159 3.35301 8.50698 2.71813 7.06619 2.49512L4.61886 18.3068ZM0.283763 16.2583L-4.85085 11.6688L5.81185 -0.26041L10.9465 4.32905L0.283763 16.2583ZM-4.85949 11.6611C-5.7437 10.8685 -6.45037 9.89863 -6.93395 8.81527L7.67658 2.29357C7.24394 1.32433 6.61168 0.456581 5.82049 -0.252673L-4.85949 11.6611ZM-6.93395 8.81527C-7.41752 7.73193 -7.66732 6.55904 -7.66732 5.37306H8.33268C8.33268 4.31208 8.10921 3.26279 7.67658 2.29357L-6.93395 8.81527ZM-7.66732 5.37306C-7.66732 4.18708 -7.41752 3.0142 -6.93395 1.93086L7.67658 8.45255C8.10921 7.48333 8.33268 6.43404 8.33268 5.37306H-7.66732ZM-6.93395 1.93086C-6.45037 0.847491 -5.7437 -0.122341 -4.85949 -0.914978L5.82049 10.9988C6.61168 10.2895 7.24394 9.42179 7.67658 8.45255L-6.93395 1.93086ZM-2.53362 8.97573V7.36887H13.4664V8.97573H-2.53362ZM-2.532 7.20771C-2.50913 6.07256 -2.25795 4.95341 -1.79319 3.91705L12.806 10.4641C13.2204 9.54001 13.4444 8.54213 13.4648 7.53002L-2.532 7.20771ZM-1.79319 3.91705C-1.32843 2.8807 -0.659489 1.94809 0.174192 1.17525L11.0516 12.9091C11.7951 12.2198 12.3916 11.3882 12.806 10.4641L-1.79319 3.91705ZM0.271877 1.08619C1.58074 -0.0875377 3.22335 -0.825186 4.97201 -1.02281L6.76879 14.876C8.32597 14.7 9.78857 14.0431 10.9539 12.9981L0.271877 1.08619ZM5.14187 -1.04017C11.7622 -1.64557 17.0928 2.25 19.7542 7.18035L5.67448 14.7805C5.55908 14.5667 5.50909 14.5987 5.67602 14.6992C5.76168 14.7508 5.89338 14.8123 6.06797 14.854C6.24573 14.8964 6.4295 14.9088 6.59893 14.8933L5.14187 -1.04017ZM4.75102 11.7457C4.70876 11.306 4.55273 11.189 4.65629 11.299C4.71807 11.3647 4.88013 11.5124 5.1755 11.6427C5.48564 11.7794 5.87056 11.8629 6.27418 11.845L5.56429 -4.13925C14.7174 -4.54576 20.0237 3.41083 20.6776 10.2151L4.75102 11.7457ZM5.91924 11.8529C3.67671 11.8529 1.52794 10.9609 -0.054876 9.37622L11.2655 -1.93085C9.84917 -3.34881 7.92626 -4.14713 5.91924 -4.14713V11.8529ZM-0.054876 9.37622C-1.63737 7.79186 -2.52474 5.64499 -2.52474 3.40837H13.4753C13.4753 1.40753 12.6814 -0.51322 11.2655 -1.93085L-0.054876 9.37622ZM-2.52474 3.40837V1.77039H13.4753V3.40837H-2.52474ZM10.8044 7.73694L6.7709 11.3396L-3.88748 -0.593491L0.146068 -4.19616L10.8044 7.73694ZM6.77743 -0.587652L10.8021 3.01502L0.130659 14.9364L-3.89401 11.3338L6.77743 -0.587652Z" fill="white" mask="url(#path-1-inside-1_7645_1886)"/>
</svg>
