<svg width="60" height="60" viewBox="0 0 60 60" fill="none" xmlns="http://www.w3.org/2000/svg">
<circle cx="30" cy="30" r="30" fill="#F53D6B"/>
<path d="M34.6203 40H25.3797C22.6892 40 20.5 37.8311 20.5 35.1646V29.8354C20.5 27.1689 22.6892 25 25.3797 25H34.6203C37.3108 25 39.5 27.1689 39.5 29.8354V35.1646C39.5 37.8311 37.3108 40 34.6203 40Z" fill="white"/>
<path opacity="0.4" d="M33.7551 28C33.344 28 33.0103 27.6763 33.0103 27.2775V24.3569C33.0103 22.7511 31.6635 21.4449 30.0089 21.4449C29.2472 21.4449 28.4477 21.7416 27.8786 22.2878C27.3085 22.8359 26.9927 23.5651 26.9897 24.3434V27.2775C26.9897 27.6763 26.656 28 26.2449 28C25.8337 28 25.5 27.6763 25.5 27.2775V24.3569C25.505 23.173 25.9777 22.0807 26.8298 21.2629C27.681 20.4431 28.7814 20.0318 30.0119 20C32.4849 20 34.5 21.9545 34.5 24.3569V27.2775C34.5 27.6763 34.1663 28 33.7551 28Z" fill="white"/>
</svg>
