<svg width="60" height="60" viewBox="0 0 60 60" fill="none" xmlns="http://www.w3.org/2000/svg">
<circle cx="30" cy="30" r="30" fill="#FFC233"/>
<path d="M32.5715 31.5941L38.4266 25.7201C38.7929 25.3518 39 24.8488 39 24.3238V22.601C39 21.52 38.1423 21 37.0844 21H22.9156C21.8577 21 21 21.52 21 22.601V24.3547C21 24.8518 21.1846 25.3309 21.5177 25.6942L26.8971 31.5632C26.9987 31.674 27.1403 31.7368 27.2898 31.7378L32.1915 31.7518C32.3332 31.7528 32.4699 31.6969 32.5715 31.5941" fill="white"/>
<path opacity="0.4" d="M27.0562 31.6855V38.2901C27.0562 38.5307 27.1773 38.7573 27.3756 38.887C27.4889 38.9619 27.6198 38.9998 27.7507 38.9998C27.8493 38.9998 27.948 38.9789 28.0398 38.9369L32.0057 37.0884C32.2539 36.9736 32.4131 36.7211 32.4131 36.4426V31.6855H27.0562Z" fill="white"/>
</svg>
