<svg width="60" height="60" viewBox="0 0 60 60" fill="none" xmlns="http://www.w3.org/2000/svg">
<circle cx="30" cy="30" r="30" fill="#3BAFDD"/>
<path fill-rule="evenodd" clip-rule="evenodd" d="M33.2428 22.7376C33.2428 24.9586 35.0459 26.759 37.2702 26.759C37.5151 26.7578 37.7594 26.7343 38 26.6888V34.6615C38 38.0156 36.0215 40 32.6624 40H25.3464C21.9785 40 20 38.0156 20 34.6615V27.3561C20 24.002 21.9785 22 25.3464 22H33.3131C33.2659 22.243 33.2423 22.49 33.2428 22.7376ZM31.15 32.8966L34.0078 29.2088V29.1912C34.2525 28.8625 34.1901 28.3989 33.8671 28.1463C33.7108 28.0257 33.5122 27.9735 33.3167 28.0016C33.1211 28.0297 32.9453 28.1358 32.8295 28.2956L30.4201 31.3951L27.6766 29.2351C27.52 29.1131 27.3207 29.0592 27.1238 29.0856C26.9269 29.1121 26.749 29.2166 26.6302 29.3756L23.6756 33.1863C23.5718 33.3158 23.5159 33.4771 23.5173 33.6429C23.5002 33.9781 23.7119 34.2826 24.0324 34.3838C24.3529 34.485 24.7014 34.3573 24.8803 34.0732L27.3512 30.8771L30.0948 33.0283C30.2508 33.1541 30.4514 33.2111 30.6504 33.1863C30.8494 33.1615 31.0297 33.0569 31.15 32.8966Z" fill="white"/>
<circle opacity="0.4" cx="37.5" cy="22.5" r="2.5" fill="white"/>
</svg>
