<svg width="177" height="145" viewBox="0 0 177 145" fill="none" xmlns="http://www.w3.org/2000/svg">
<circle cx="0.917722" cy="0.917722" r="0.917722" fill="#ACB3C1"/>
<circle cx="93.9138" cy="0.917722" r="0.917722" fill="#ACB3C1"/>
<circle cx="47.4158" cy="0.917722" r="0.917722" fill="#ACB3C1"/>
<circle cx="140.412" cy="0.917722" r="0.917722" fill="#ACB3C1"/>
<circle cx="24.1667" cy="0.917722" r="0.917722" fill="#ACB3C1"/>
<circle cx="117.163" cy="0.917722" r="0.917722" fill="#ACB3C1"/>
<circle cx="70.6648" cy="0.917722" r="0.917722" fill="#ACB3C1"/>
<circle cx="163.661" cy="0.917722" r="0.917722" fill="#ACB3C1"/>
<circle cx="12.5427" cy="0.917722" r="0.917722" fill="#ACB3C1"/>
<circle cx="105.538" cy="0.917722" r="0.917722" fill="#ACB3C1"/>
<circle cx="59.0403" cy="0.917722" r="0.917722" fill="#ACB3C1"/>
<circle cx="152.036" cy="0.917722" r="0.917722" fill="#ACB3C1"/>
<circle cx="35.7913" cy="0.917722" r="0.917722" fill="#ACB3C1"/>
<circle cx="128.787" cy="0.917722" r="0.917722" fill="#ACB3C1"/>
<circle cx="82.2893" cy="0.917722" r="0.917722" fill="#ACB3C1"/>
<circle cx="175.285" cy="0.917722" r="0.917722" fill="#ACB3C1"/>
<circle cx="0.91821" cy="66.9934" r="0.917722" fill="#ACB3C1"/>
<circle cx="93.9138" cy="66.9934" r="0.917722" fill="#ACB3C1"/>
<circle cx="47.4163" cy="66.9934" r="0.917722" fill="#ACB3C1"/>
<circle cx="140.412" cy="66.9934" r="0.917722" fill="#ACB3C1"/>
<circle cx="24.1672" cy="66.9934" r="0.917722" fill="#ACB3C1"/>
<circle cx="117.163" cy="66.9934" r="0.917722" fill="#ACB3C1"/>
<circle cx="70.6653" cy="66.9934" r="0.917722" fill="#ACB3C1"/>
<circle cx="163.661" cy="66.9934" r="0.917722" fill="#ACB3C1"/>
<circle cx="12.5427" cy="66.9934" r="0.917722" fill="#ACB3C1"/>
<circle cx="105.538" cy="66.9934" r="0.917722" fill="#ACB3C1"/>
<circle cx="59.0408" cy="66.9934" r="0.917722" fill="#ACB3C1"/>
<circle cx="152.036" cy="66.9934" r="0.917722" fill="#ACB3C1"/>
<circle cx="35.7917" cy="66.9934" r="0.917722" fill="#ACB3C1"/>
<circle cx="128.787" cy="66.9934" r="0.917722" fill="#ACB3C1"/>
<circle cx="82.2893" cy="66.9934" r="0.917722" fill="#ACB3C1"/>
<circle cx="175.285" cy="66.9934" r="0.917722" fill="#ACB3C1"/>
<circle cx="0.917722" cy="22.9436" r="0.917722" fill="#ACB3C1"/>
<circle cx="93.9138" cy="22.9431" r="0.917722" fill="#ACB3C1"/>
<circle cx="47.4158" cy="22.9431" r="0.917722" fill="#ACB3C1"/>
<circle cx="140.412" cy="22.9431" r="0.917722" fill="#ACB3C1"/>
<circle cx="24.1667" cy="22.9431" r="0.917722" fill="#ACB3C1"/>
<circle cx="117.163" cy="22.9431" r="0.917722" fill="#ACB3C1"/>
<circle cx="70.6648" cy="22.9431" r="0.917722" fill="#ACB3C1"/>
<circle cx="163.661" cy="22.9431" r="0.917722" fill="#ACB3C1"/>
<circle cx="12.5427" cy="22.9431" r="0.917722" fill="#ACB3C1"/>
<circle cx="105.538" cy="22.9431" r="0.917722" fill="#ACB3C1"/>
<circle cx="59.0403" cy="22.9431" r="0.917722" fill="#ACB3C1"/>
<circle cx="152.036" cy="22.9431" r="0.917722" fill="#ACB3C1"/>
<circle cx="35.7913" cy="22.9431" r="0.917722" fill="#ACB3C1"/>
<circle cx="128.787" cy="22.9431" r="0.917722" fill="#ACB3C1"/>
<circle cx="82.2893" cy="22.9431" r="0.917722" fill="#ACB3C1"/>
<circle cx="175.285" cy="22.9431" r="0.917722" fill="#ACB3C1"/>
<circle cx="0.917722" cy="89.0193" r="0.917722" fill="#ACB3C1"/>
<circle cx="93.9138" cy="89.0188" r="0.917722" fill="#ACB3C1"/>
<circle cx="47.4158" cy="89.0188" r="0.917722" fill="#ACB3C1"/>
<circle cx="140.412" cy="89.0188" r="0.917722" fill="#ACB3C1"/>
<circle cx="24.1667" cy="89.0188" r="0.917722" fill="#ACB3C1"/>
<circle cx="117.163" cy="89.0188" r="0.917722" fill="#ACB3C1"/>
<circle cx="70.6648" cy="89.0188" r="0.917722" fill="#ACB3C1"/>
<circle cx="163.661" cy="89.0188" r="0.917722" fill="#ACB3C1"/>
<circle cx="12.5427" cy="89.0188" r="0.917722" fill="#ACB3C1"/>
<circle cx="105.538" cy="89.0188" r="0.917722" fill="#ACB3C1"/>
<circle cx="59.0403" cy="89.0188" r="0.917722" fill="#ACB3C1"/>
<circle cx="152.036" cy="89.0188" r="0.917722" fill="#ACB3C1"/>
<circle cx="35.7913" cy="89.0188" r="0.917722" fill="#ACB3C1"/>
<circle cx="128.787" cy="89.0188" r="0.917722" fill="#ACB3C1"/>
<circle cx="82.2893" cy="89.0188" r="0.917722" fill="#ACB3C1"/>
<circle cx="175.285" cy="89.0188" r="0.917722" fill="#ACB3C1"/>
<circle cx="0.917722" cy="44.969" r="0.917722" fill="#ACB3C1"/>
<circle cx="93.9138" cy="44.9685" r="0.917722" fill="#ACB3C1"/>
<circle cx="47.4158" cy="44.9685" r="0.917722" fill="#ACB3C1"/>
<circle cx="140.412" cy="44.9685" r="0.917722" fill="#ACB3C1"/>
<circle cx="24.1667" cy="44.9685" r="0.917722" fill="#ACB3C1"/>
<circle cx="117.163" cy="44.9685" r="0.917722" fill="#ACB3C1"/>
<circle cx="70.6648" cy="44.9685" r="0.917722" fill="#ACB3C1"/>
<circle cx="163.661" cy="44.9685" r="0.917722" fill="#ACB3C1"/>
<circle cx="12.5427" cy="44.9685" r="0.917722" fill="#ACB3C1"/>
<circle cx="105.538" cy="44.9685" r="0.917722" fill="#ACB3C1"/>
<circle cx="59.0403" cy="44.9685" r="0.917722" fill="#ACB3C1"/>
<circle cx="152.036" cy="44.9685" r="0.917722" fill="#ACB3C1"/>
<circle cx="35.7913" cy="44.9685" r="0.917722" fill="#ACB3C1"/>
<circle cx="128.787" cy="44.9685" r="0.917722" fill="#ACB3C1"/>
<circle cx="82.2893" cy="44.9685" r="0.917722" fill="#ACB3C1"/>
<circle cx="175.285" cy="44.9685" r="0.917722" fill="#ACB3C1"/>
<circle cx="0.917722" cy="111.045" r="0.917722" fill="#ACB3C1"/>
<circle cx="93.9138" cy="111.044" r="0.917722" fill="#ACB3C1"/>
<circle cx="47.4158" cy="111.044" r="0.917722" fill="#ACB3C1"/>
<circle cx="140.412" cy="111.044" r="0.917722" fill="#ACB3C1"/>
<circle cx="24.1667" cy="111.044" r="0.917722" fill="#ACB3C1"/>
<circle cx="117.163" cy="111.044" r="0.917722" fill="#ACB3C1"/>
<circle cx="70.6648" cy="111.044" r="0.917722" fill="#ACB3C1"/>
<circle cx="163.661" cy="111.044" r="0.917722" fill="#ACB3C1"/>
<circle cx="12.5427" cy="111.044" r="0.917722" fill="#ACB3C1"/>
<circle cx="105.538" cy="111.044" r="0.917722" fill="#ACB3C1"/>
<circle cx="59.0403" cy="111.044" r="0.917722" fill="#ACB3C1"/>
<circle cx="152.036" cy="111.044" r="0.917722" fill="#ACB3C1"/>
<circle cx="35.7913" cy="111.044" r="0.917722" fill="#ACB3C1"/>
<circle cx="128.787" cy="111.044" r="0.917722" fill="#ACB3C1"/>
<circle cx="82.2893" cy="111.044" r="0.917722" fill="#ACB3C1"/>
<circle cx="175.285" cy="111.044" r="0.917722" fill="#ACB3C1"/>
<circle cx="0.917722" cy="133.07" r="0.917722" fill="#ACB3C1"/>
<circle cx="93.9138" cy="133.07" r="0.917722" fill="#ACB3C1"/>
<circle cx="47.4158" cy="133.07" r="0.917722" fill="#ACB3C1"/>
<circle cx="140.412" cy="133.07" r="0.917722" fill="#ACB3C1"/>
<circle cx="24.1667" cy="133.07" r="0.917722" fill="#ACB3C1"/>
<circle cx="117.163" cy="133.07" r="0.917722" fill="#ACB3C1"/>
<circle cx="70.6648" cy="133.07" r="0.917722" fill="#ACB3C1"/>
<circle cx="163.661" cy="133.07" r="0.917722" fill="#ACB3C1"/>
<circle cx="12.5427" cy="133.07" r="0.917722" fill="#ACB3C1"/>
<circle cx="105.538" cy="133.07" r="0.917722" fill="#ACB3C1"/>
<circle cx="59.0403" cy="133.07" r="0.917722" fill="#ACB3C1"/>
<circle cx="152.036" cy="133.07" r="0.917722" fill="#ACB3C1"/>
<circle cx="35.7913" cy="133.07" r="0.917722" fill="#ACB3C1"/>
<circle cx="128.787" cy="133.07" r="0.917722" fill="#ACB3C1"/>
<circle cx="82.2893" cy="133.07" r="0.917722" fill="#ACB3C1"/>
<circle cx="175.285" cy="133.07" r="0.917722" fill="#ACB3C1"/>
<circle cx="0.917722" cy="11.9304" r="0.917722" fill="#ACB3C1"/>
<circle cx="93.9138" cy="11.9304" r="0.917722" fill="#ACB3C1"/>
<circle cx="47.4158" cy="11.9304" r="0.917722" fill="#ACB3C1"/>
<circle cx="140.412" cy="11.9304" r="0.917722" fill="#ACB3C1"/>
<circle cx="24.1667" cy="11.9304" r="0.917722" fill="#ACB3C1"/>
<circle cx="117.163" cy="11.9304" r="0.917722" fill="#ACB3C1"/>
<circle cx="70.6648" cy="11.9304" r="0.917722" fill="#ACB3C1"/>
<circle cx="163.661" cy="11.9304" r="0.917722" fill="#ACB3C1"/>
<circle cx="12.5427" cy="11.9304" r="0.917722" fill="#ACB3C1"/>
<circle cx="105.538" cy="11.9304" r="0.917722" fill="#ACB3C1"/>
<circle cx="59.0403" cy="11.9304" r="0.917722" fill="#ACB3C1"/>
<circle cx="152.036" cy="11.9304" r="0.917722" fill="#ACB3C1"/>
<circle cx="35.7913" cy="11.9304" r="0.917722" fill="#ACB3C1"/>
<circle cx="128.787" cy="11.9304" r="0.917722" fill="#ACB3C1"/>
<circle cx="82.2893" cy="11.9304" r="0.917722" fill="#ACB3C1"/>
<circle cx="175.285" cy="11.9304" r="0.917722" fill="#ACB3C1"/>
<circle cx="0.917722" cy="78.0061" r="0.917722" fill="#ACB3C1"/>
<circle cx="93.9138" cy="78.0061" r="0.917722" fill="#ACB3C1"/>
<circle cx="47.4158" cy="78.0061" r="0.917722" fill="#ACB3C1"/>
<circle cx="140.412" cy="78.0061" r="0.917722" fill="#ACB3C1"/>
<circle cx="24.1667" cy="78.0061" r="0.917722" fill="#ACB3C1"/>
<circle cx="117.163" cy="78.0061" r="0.917722" fill="#ACB3C1"/>
<circle cx="70.6648" cy="78.0061" r="0.917722" fill="#ACB3C1"/>
<circle cx="163.661" cy="78.0061" r="0.917722" fill="#ACB3C1"/>
<circle cx="12.5427" cy="78.0061" r="0.917722" fill="#ACB3C1"/>
<circle cx="105.538" cy="78.0061" r="0.917722" fill="#ACB3C1"/>
<circle cx="59.0403" cy="78.0061" r="0.917722" fill="#ACB3C1"/>
<circle cx="152.036" cy="78.0061" r="0.917722" fill="#ACB3C1"/>
<circle cx="35.7913" cy="78.0061" r="0.917722" fill="#ACB3C1"/>
<circle cx="128.787" cy="78.0061" r="0.917722" fill="#ACB3C1"/>
<circle cx="82.2893" cy="78.0061" r="0.917722" fill="#ACB3C1"/>
<circle cx="175.285" cy="78.0061" r="0.917722" fill="#ACB3C1"/>
<circle cx="0.917722" cy="33.9563" r="0.917722" fill="#ACB3C1"/>
<circle cx="93.9138" cy="33.9558" r="0.917722" fill="#ACB3C1"/>
<circle cx="47.4158" cy="33.9558" r="0.917722" fill="#ACB3C1"/>
<circle cx="140.412" cy="33.9558" r="0.917722" fill="#ACB3C1"/>
<circle cx="24.1667" cy="33.9558" r="0.917722" fill="#ACB3C1"/>
<circle cx="117.163" cy="33.9558" r="0.917722" fill="#ACB3C1"/>
<circle cx="70.6648" cy="33.9558" r="0.917722" fill="#ACB3C1"/>
<circle cx="163.661" cy="33.9558" r="0.917722" fill="#ACB3C1"/>
<circle cx="12.5427" cy="33.9558" r="0.917722" fill="#ACB3C1"/>
<circle cx="105.538" cy="33.9558" r="0.917722" fill="#ACB3C1"/>
<circle cx="59.0403" cy="33.9558" r="0.917722" fill="#ACB3C1"/>
<circle cx="152.036" cy="33.9558" r="0.917722" fill="#ACB3C1"/>
<circle cx="35.7913" cy="33.9558" r="0.917722" fill="#ACB3C1"/>
<circle cx="128.787" cy="33.9558" r="0.917722" fill="#ACB3C1"/>
<circle cx="82.2893" cy="33.9558" r="0.917722" fill="#ACB3C1"/>
<circle cx="175.285" cy="33.9558" r="0.917722" fill="#ACB3C1"/>
<circle cx="0.917722" cy="100.031" r="0.917722" fill="#ACB3C1"/>
<circle cx="93.9138" cy="100.031" r="0.917722" fill="#ACB3C1"/>
<circle cx="47.4158" cy="100.031" r="0.917722" fill="#ACB3C1"/>
<circle cx="140.412" cy="100.031" r="0.917722" fill="#ACB3C1"/>
<circle cx="24.1667" cy="100.031" r="0.917722" fill="#ACB3C1"/>
<circle cx="117.163" cy="100.031" r="0.917722" fill="#ACB3C1"/>
<circle cx="70.6648" cy="100.031" r="0.917722" fill="#ACB3C1"/>
<circle cx="163.661" cy="100.031" r="0.917722" fill="#ACB3C1"/>
<circle cx="12.5427" cy="100.031" r="0.917722" fill="#ACB3C1"/>
<circle cx="105.538" cy="100.031" r="0.917722" fill="#ACB3C1"/>
<circle cx="59.0403" cy="100.031" r="0.917722" fill="#ACB3C1"/>
<circle cx="152.036" cy="100.031" r="0.917722" fill="#ACB3C1"/>
<circle cx="35.7913" cy="100.031" r="0.917722" fill="#ACB3C1"/>
<circle cx="128.787" cy="100.031" r="0.917722" fill="#ACB3C1"/>
<circle cx="82.2893" cy="100.031" r="0.917722" fill="#ACB3C1"/>
<circle cx="175.285" cy="100.031" r="0.917722" fill="#ACB3C1"/>
<circle cx="0.917722" cy="55.9817" r="0.917722" fill="#ACB3C1"/>
<circle cx="93.9138" cy="55.9812" r="0.917722" fill="#ACB3C1"/>
<circle cx="47.4158" cy="55.9812" r="0.917722" fill="#ACB3C1"/>
<circle cx="140.412" cy="55.9812" r="0.917722" fill="#ACB3C1"/>
<circle cx="24.1667" cy="55.9812" r="0.917722" fill="#ACB3C1"/>
<circle cx="117.163" cy="55.9812" r="0.917722" fill="#ACB3C1"/>
<circle cx="70.6648" cy="55.9812" r="0.917722" fill="#ACB3C1"/>
<circle cx="163.661" cy="55.9812" r="0.917722" fill="#ACB3C1"/>
<circle cx="12.5427" cy="55.9812" r="0.917722" fill="#ACB3C1"/>
<circle cx="105.538" cy="55.9812" r="0.917722" fill="#ACB3C1"/>
<circle cx="59.0403" cy="55.9812" r="0.917722" fill="#ACB3C1"/>
<circle cx="152.036" cy="55.9812" r="0.917722" fill="#ACB3C1"/>
<circle cx="35.7913" cy="55.9812" r="0.917722" fill="#ACB3C1"/>
<circle cx="128.787" cy="55.9812" r="0.917722" fill="#ACB3C1"/>
<circle cx="82.2893" cy="55.9812" r="0.917722" fill="#ACB3C1"/>
<circle cx="175.285" cy="55.9812" r="0.917722" fill="#ACB3C1"/>
<circle cx="0.917722" cy="122.057" r="0.917722" fill="#ACB3C1"/>
<circle cx="93.9138" cy="122.057" r="0.917722" fill="#ACB3C1"/>
<circle cx="47.4158" cy="122.057" r="0.917722" fill="#ACB3C1"/>
<circle cx="140.412" cy="122.057" r="0.917722" fill="#ACB3C1"/>
<circle cx="24.1667" cy="122.057" r="0.917722" fill="#ACB3C1"/>
<circle cx="117.163" cy="122.057" r="0.917722" fill="#ACB3C1"/>
<circle cx="70.6648" cy="122.057" r="0.917722" fill="#ACB3C1"/>
<circle cx="163.661" cy="122.057" r="0.917722" fill="#ACB3C1"/>
<circle cx="12.5427" cy="122.057" r="0.917722" fill="#ACB3C1"/>
<circle cx="105.538" cy="122.057" r="0.917722" fill="#ACB3C1"/>
<circle cx="59.0403" cy="122.057" r="0.917722" fill="#ACB3C1"/>
<circle cx="152.036" cy="122.057" r="0.917722" fill="#ACB3C1"/>
<circle cx="35.7913" cy="122.057" r="0.917722" fill="#ACB3C1"/>
<circle cx="128.787" cy="122.057" r="0.917722" fill="#ACB3C1"/>
<circle cx="82.2893" cy="122.057" r="0.917722" fill="#ACB3C1"/>
<circle cx="175.285" cy="122.057" r="0.917722" fill="#ACB3C1"/>
<circle cx="0.917722" cy="144.083" r="0.917722" fill="#ACB3C1"/>
<circle cx="93.9138" cy="144.082" r="0.917722" fill="#ACB3C1"/>
<circle cx="47.4158" cy="144.082" r="0.917722" fill="#ACB3C1"/>
<circle cx="140.412" cy="144.082" r="0.917722" fill="#ACB3C1"/>
<circle cx="24.1667" cy="144.082" r="0.917722" fill="#ACB3C1"/>
<circle cx="117.163" cy="144.082" r="0.917722" fill="#ACB3C1"/>
<circle cx="70.6648" cy="144.082" r="0.917722" fill="#ACB3C1"/>
<circle cx="163.661" cy="144.082" r="0.917722" fill="#ACB3C1"/>
<circle cx="12.5427" cy="144.082" r="0.917722" fill="#ACB3C1"/>
<circle cx="105.538" cy="144.082" r="0.917722" fill="#ACB3C1"/>
<circle cx="59.0403" cy="144.082" r="0.917722" fill="#ACB3C1"/>
<circle cx="152.036" cy="144.082" r="0.917722" fill="#ACB3C1"/>
<circle cx="35.7913" cy="144.082" r="0.917722" fill="#ACB3C1"/>
<circle cx="128.787" cy="144.082" r="0.917722" fill="#ACB3C1"/>
<circle cx="82.2893" cy="144.082" r="0.917722" fill="#ACB3C1"/>
<circle cx="175.285" cy="144.082" r="0.917722" fill="#ACB3C1"/>
</svg>
