<svg width="64" height="24" viewBox="0 0 64 24" fill="none" xmlns="http://www.w3.org/2000/svg">
<path d="M28.616 7.228V8.81H26.012V17H24.052V8.81H21.448V7.228H28.616ZM40.7981 9.244L38.5301 17H36.4161L35.0021 11.582L33.5881 17H31.4601L29.1781 9.244H31.1661L32.5381 15.152L34.0221 9.244H36.0941L37.5501 15.138L38.9221 9.244H40.7981ZM49.0686 12.954C49.0686 13.234 49.0499 13.486 49.0126 13.71H43.3426C43.3892 14.27 43.5852 14.7087 43.9306 15.026C44.2759 15.3433 44.7006 15.502 45.2046 15.502C45.9326 15.502 46.4506 15.1893 46.7586 14.564H48.8726C48.6486 15.3107 48.2192 15.9267 47.5846 16.412C46.9499 16.888 46.1706 17.126 45.2466 17.126C44.4999 17.126 43.8279 16.9627 43.2306 16.636C42.6426 16.3 42.1806 15.8287 41.8446 15.222C41.5179 14.6153 41.3546 13.9153 41.3546 13.122C41.3546 12.3193 41.5179 11.6147 41.8446 11.008C42.1712 10.4013 42.6286 9.93467 43.2166 9.608C43.8046 9.28133 44.4812 9.118 45.2466 9.118C45.9839 9.118 46.6419 9.27667 47.2206 9.594C47.8086 9.91133 48.2612 10.364 48.5786 10.952C48.9052 11.5307 49.0686 12.198 49.0686 12.954ZM47.0386 12.394C47.0292 11.89 46.8472 11.4887 46.4926 11.19C46.1379 10.882 45.7039 10.728 45.1906 10.728C44.7052 10.728 44.2946 10.8773 43.9586 11.176C43.6319 11.4653 43.4312 11.8713 43.3566 12.394H47.0386ZM57.7092 12.954C57.7092 13.234 57.6905 13.486 57.6532 13.71H51.9832C52.0299 14.27 52.2259 14.7087 52.5712 15.026C52.9165 15.3433 53.3412 15.502 53.8452 15.502C54.5732 15.502 55.0912 15.1893 55.3992 14.564H57.5132C57.2892 15.3107 56.8599 15.9267 56.2252 16.412C55.5905 16.888 54.8112 17.126 53.8872 17.126C53.1405 17.126 52.4685 16.9627 51.8712 16.636C51.2832 16.3 50.8212 15.8287 50.4852 15.222C50.1585 14.6153 49.9952 13.9153 49.9952 13.122C49.9952 12.3193 50.1585 11.6147 50.4852 11.008C50.8119 10.4013 51.2692 9.93467 51.8572 9.608C52.4452 9.28133 53.1219 9.118 53.8872 9.118C54.6245 9.118 55.2825 9.27667 55.8612 9.594C56.4492 9.91133 56.9019 10.364 57.2192 10.952C57.5459 11.5307 57.7092 12.198 57.7092 12.954ZM55.6792 12.394C55.6699 11.89 55.4879 11.4887 55.1332 11.19C54.7785 10.882 54.3445 10.728 53.8312 10.728C53.3459 10.728 52.9352 10.8773 52.5992 11.176C52.2725 11.4653 52.0719 11.8713 51.9972 12.394H55.6792ZM61.4218 10.854V14.606C61.4218 14.8673 61.4825 15.0587 61.6038 15.18C61.7345 15.292 61.9492 15.348 62.2478 15.348H63.1578V17H61.9258C60.2738 17 59.4478 16.1973 59.4478 14.592V10.854H58.5238V9.244H59.4478V7.326H61.4218V9.244H63.1578V10.854H61.4218Z" fill="white"/>
<path d="M12.5508 7.90625C13.0977 7.49609 13.5898 7.00391 13.9727 6.42969C13.4805 6.64844 12.9062 6.8125 12.332 6.86719C12.9336 6.51172 13.3711 5.96484 13.5898 5.28125C13.043 5.60938 12.4141 5.85547 11.7852 5.99219C11.2383 5.41797 10.5 5.08984 9.67969 5.08984C8.09375 5.08984 6.80859 6.375 6.80859 7.96094C6.80859 8.17969 6.83594 8.39844 6.89062 8.61719C4.51172 8.48047 2.37891 7.33203 0.957031 5.60938C0.710938 6.01953 0.574219 6.51172 0.574219 7.05859C0.574219 8.04297 1.06641 8.91797 1.85938 9.4375C1.39453 9.41016 0.929688 9.30078 0.546875 9.08203V9.10938C0.546875 10.5039 1.53125 11.6523 2.84375 11.9258C2.625 11.9805 2.35156 12.0352 2.10547 12.0352C1.91406 12.0352 1.75 12.0078 1.55859 11.9805C1.91406 13.1289 2.98047 13.9492 4.23828 13.9766C3.25391 14.7422 2.02344 15.207 0.683594 15.207C0.4375 15.207 0.21875 15.1797 0 15.1523C1.25781 15.9727 2.76172 16.4375 4.40234 16.4375C9.67969 16.4375 12.5508 12.0898 12.5508 8.28906C12.5508 8.15234 12.5508 8.04297 12.5508 7.90625Z" fill="white"/>
</svg>
