<svg width="58" height="24" viewBox="0 0 58 24" fill="none" xmlns="http://www.w3.org/2000/svg">
<path d="M20.34 17.098C19.6587 17.098 19.0427 16.9813 18.492 16.748C17.9507 16.5147 17.5213 16.1787 17.204 15.74C16.8867 15.3013 16.7233 14.7833 16.714 14.186H18.814C18.842 14.5873 18.982 14.9047 19.234 15.138C19.4953 15.3713 19.85 15.488 20.298 15.488C20.7553 15.488 21.1147 15.3807 21.376 15.166C21.6373 14.942 21.768 14.6527 21.768 14.298C21.768 14.0087 21.6793 13.7707 21.502 13.584C21.3247 13.3973 21.1007 13.2527 20.83 13.15C20.5687 13.038 20.2047 12.9167 19.738 12.786C19.1033 12.5993 18.5853 12.4173 18.184 12.24C17.792 12.0533 17.4513 11.778 17.162 11.414C16.882 11.0407 16.742 10.546 16.742 9.93C16.742 9.35133 16.8867 8.84733 17.176 8.418C17.4653 7.98867 17.8713 7.662 18.394 7.438C18.9167 7.20467 19.514 7.088 20.186 7.088C21.194 7.088 22.0107 7.33533 22.636 7.83C23.2707 8.31533 23.6207 8.99667 23.686 9.874H21.53C21.5113 9.538 21.3667 9.26267 21.096 9.048C20.8347 8.824 20.4847 8.712 20.046 8.712C19.6633 8.712 19.3553 8.81 19.122 9.006C18.898 9.202 18.786 9.48667 18.786 9.86C18.786 10.1213 18.87 10.3407 19.038 10.518C19.2153 10.686 19.43 10.826 19.682 10.938C19.9433 11.0407 20.3073 11.162 20.774 11.302C21.4087 11.4887 21.9267 11.6753 22.328 11.862C22.7293 12.0487 23.0747 12.3287 23.364 12.702C23.6533 13.0753 23.798 13.5653 23.798 14.172C23.798 14.6947 23.6627 15.18 23.392 15.628C23.1213 16.076 22.7247 16.4353 22.202 16.706C21.6793 16.9673 21.0587 17.098 20.34 17.098ZM29.8653 9.132C30.4533 9.132 30.9759 9.26267 31.4333 9.524C31.8906 9.776 32.2453 10.154 32.4973 10.658C32.7586 11.1527 32.8893 11.75 32.8893 12.45V17H30.9293V12.716C30.9293 12.1 30.7753 11.6287 30.4673 11.302C30.1593 10.966 29.7393 10.798 29.2073 10.798C28.6659 10.798 28.2366 10.966 27.9193 11.302C27.6113 11.6287 27.4573 12.1 27.4573 12.716V17H25.4973V6.64H27.4573V10.21C27.7093 9.874 28.0453 9.61267 28.4653 9.426C28.8853 9.23 29.3519 9.132 29.8653 9.132ZM34.2491 13.094C34.2491 12.31 34.4031 11.6147 34.7111 11.008C35.0284 10.4013 35.4531 9.93467 35.9851 9.608C36.5264 9.28133 37.1284 9.118 37.7911 9.118C38.3698 9.118 38.8738 9.23467 39.3031 9.468C39.7418 9.70133 40.0918 9.99533 40.3531 10.35V9.244H42.3271V17H40.3531V15.866C40.1011 16.23 39.7511 16.5333 39.3031 16.776C38.8644 17.0093 38.3558 17.126 37.7771 17.126C37.1238 17.126 36.5264 16.958 35.9851 16.622C35.4531 16.286 35.0284 15.8147 34.7111 15.208C34.4031 14.592 34.2491 13.8873 34.2491 13.094ZM40.3531 13.122C40.3531 12.646 40.2598 12.24 40.0731 11.904C39.8864 11.5587 39.6344 11.2973 39.3171 11.12C38.9998 10.9333 38.6591 10.84 38.2951 10.84C37.9311 10.84 37.5951 10.9287 37.2871 11.106C36.9791 11.2833 36.7271 11.5447 36.5311 11.89C36.3444 12.226 36.2511 12.6273 36.2511 13.094C36.2511 13.5607 36.3444 13.9713 36.5311 14.326C36.7271 14.6713 36.9791 14.9373 37.2871 15.124C37.6044 15.3107 37.9404 15.404 38.2951 15.404C38.6591 15.404 38.9998 15.3153 39.3171 15.138C39.6344 14.9513 39.8864 14.69 40.0731 14.354C40.2598 14.0087 40.3531 13.598 40.3531 13.122ZM46.2014 10.448C46.4534 10.0373 46.7801 9.71533 47.1814 9.482C47.5921 9.24867 48.0587 9.132 48.5814 9.132V11.19H48.0634C47.4474 11.19 46.9807 11.3347 46.6634 11.624C46.3554 11.9133 46.2014 12.4173 46.2014 13.136V17H44.2414V9.244H46.2014V10.448ZM57.1115 12.954C57.1115 13.234 57.0929 13.486 57.0555 13.71H51.3855C51.4322 14.27 51.6282 14.7087 51.9735 15.026C52.3189 15.3433 52.7435 15.502 53.2475 15.502C53.9755 15.502 54.4935 15.1893 54.8015 14.564H56.9155C56.6915 15.3107 56.2622 15.9267 55.6275 16.412C54.9929 16.888 54.2135 17.126 53.2895 17.126C52.5429 17.126 51.8709 16.9627 51.2735 16.636C50.6855 16.3 50.2235 15.8287 49.8875 15.222C49.5609 14.6153 49.3975 13.9153 49.3975 13.122C49.3975 12.3193 49.5609 11.6147 49.8875 11.008C50.2142 10.4013 50.6715 9.93467 51.2595 9.608C51.8475 9.28133 52.5242 9.118 53.2895 9.118C54.0269 9.118 54.6849 9.27667 55.2635 9.594C55.8515 9.91133 56.3042 10.364 56.6215 10.952C56.9482 11.5307 57.1115 12.198 57.1115 12.954ZM55.0815 12.394C55.0722 11.89 54.8902 11.4887 54.5355 11.19C54.1809 10.882 53.7469 10.728 53.2335 10.728C52.7482 10.728 52.3375 10.8773 52.0015 11.176C51.6749 11.4653 51.4742 11.8713 51.3995 12.394H55.0815Z" fill="white"/>
<path d="M7.62891 11.625L8.01172 9.10938H5.57812V7.46875C5.57812 6.75781 5.90625 6.10156 7 6.10156H8.12109V3.94141C8.12109 3.94141 7.10938 3.75 6.15234 3.75C4.15625 3.75 2.84375 4.98047 2.84375 7.16797V9.10938H0.601562V11.625H2.84375V17.75H5.57812V11.625H7.62891Z" fill="white"/>
</svg>
