<svg width="53" height="24" viewBox="0 0 53 24" fill="none" xmlns="http://www.w3.org/2000/svg">
<path d="M26.092 10.252C26.092 10.7747 25.966 11.2647 25.714 11.722C25.4713 12.1793 25.084 12.548 24.552 12.828C24.0293 13.108 23.3667 13.248 22.564 13.248H20.926V17H18.966V7.228H22.564C23.32 7.228 23.964 7.35867 24.496 7.62C25.028 7.88133 25.4247 8.24067 25.686 8.698C25.9567 9.15533 26.092 9.67333 26.092 10.252ZM22.48 11.666C23.0213 11.666 23.4227 11.5447 23.684 11.302C23.9453 11.05 24.076 10.7 24.076 10.252C24.076 9.3 23.544 8.824 22.48 8.824H20.926V11.666H22.48ZM28.4776 8.32C28.1322 8.32 27.8429 8.21267 27.6096 7.998C27.3856 7.774 27.2736 7.49867 27.2736 7.172C27.2736 6.84533 27.3856 6.57467 27.6096 6.36C27.8429 6.136 28.1322 6.024 28.4776 6.024C28.8229 6.024 29.1076 6.136 29.3316 6.36C29.5649 6.57467 29.6816 6.84533 29.6816 7.172C29.6816 7.49867 29.5649 7.774 29.3316 7.998C29.1076 8.21267 28.8229 8.32 28.4776 8.32ZM29.4436 9.244V17H27.4836V9.244H29.4436ZM35.6781 9.132C36.6021 9.132 37.3487 9.426 37.9181 10.014C38.4874 10.5927 38.7721 11.4047 38.7721 12.45V17H36.8121V12.716C36.8121 12.1 36.6581 11.6287 36.3501 11.302C36.0421 10.966 35.6221 10.798 35.0901 10.798C34.5487 10.798 34.1194 10.966 33.8021 11.302C33.4941 11.6287 33.3401 12.1 33.3401 12.716V17H31.3801V9.244H33.3401V10.21C33.6014 9.874 33.9327 9.61267 34.3341 9.426C34.7447 9.23 35.1927 9.132 35.6781 9.132ZM44.9659 8.32C44.6205 8.32 44.3312 8.21267 44.0979 7.998C43.8739 7.774 43.7619 7.49867 43.7619 7.172C43.7619 6.84533 43.8739 6.57467 44.0979 6.36C44.3312 6.136 44.6205 6.024 44.9659 6.024C45.3112 6.024 45.5959 6.136 45.8199 6.36C46.0532 6.57467 46.1699 6.84533 46.1699 7.172C46.1699 7.49867 46.0532 7.774 45.8199 7.998C45.5959 8.21267 45.3112 8.32 44.9659 8.32ZM45.9319 9.244V17H43.9719V9.244H45.9319ZM50.1503 10.854V14.606C50.1503 14.8673 50.211 15.0587 50.3323 15.18C50.463 15.292 50.6777 15.348 50.9763 15.348H51.8863V17H50.6543C49.0023 17 48.1763 16.1973 48.1763 14.592V10.854H47.2523V9.244H48.1763V7.326H50.1503V9.244H51.8863V10.854H50.1503Z" fill="white"/>
<path d="M5.57812 3.94141C2.76172 3.94141 0 5.80078 0 8.83594C0 10.75 1.06641 11.8438 1.72266 11.8438C1.99609 11.8438 2.16016 11.1055 2.16016 10.8867C2.16016 10.6406 1.50391 10.0938 1.50391 9.02734C1.50391 6.83984 3.17188 5.28125 5.33203 5.28125C7.21875 5.28125 8.58594 6.34766 8.58594 8.28906C8.58594 9.73828 8.01172 12.4453 6.125 12.4453C5.44141 12.4453 4.83984 11.9531 4.83984 11.2695C4.83984 10.2305 5.57812 9.21875 5.57812 8.15234C5.57812 6.34766 3.00781 6.67578 3.00781 8.86328C3.00781 9.32812 3.0625 9.82031 3.28125 10.2578C2.89844 11.8711 2.13281 14.3047 2.13281 15.9727C2.13281 16.4922 2.1875 16.9844 2.24219 17.5039C2.32422 17.6133 2.29688 17.6133 2.43359 17.5586C3.80078 15.6719 3.77344 15.2891 4.375 12.8281C4.73047 13.457 5.57812 13.8125 6.28906 13.8125C9.1875 13.8125 10.5 10.9688 10.5 8.42578C10.5 5.71875 8.14844 3.94141 5.57812 3.94141Z" fill="white"/>
</svg>
