<svg width="62" height="24" viewBox="0 0 62 24" fill="none" xmlns="http://www.w3.org/2000/svg">
<path d="M24.34 17.098C23.6587 17.098 23.0427 16.9813 22.492 16.748C21.9507 16.5147 21.5213 16.1787 21.204 15.74C20.8867 15.3013 20.7233 14.7833 20.714 14.186H22.814C22.842 14.5873 22.982 14.9047 23.234 15.138C23.4953 15.3713 23.85 15.488 24.298 15.488C24.7553 15.488 25.1147 15.3807 25.376 15.166C25.6373 14.942 25.768 14.6527 25.768 14.298C25.768 14.0087 25.6793 13.7707 25.502 13.584C25.3247 13.3973 25.1007 13.2527 24.83 13.15C24.5687 13.038 24.2047 12.9167 23.738 12.786C23.1033 12.5993 22.5853 12.4173 22.184 12.24C21.792 12.0533 21.4513 11.778 21.162 11.414C20.882 11.0407 20.742 10.546 20.742 9.93C20.742 9.35133 20.8867 8.84733 21.176 8.418C21.4653 7.98867 21.8713 7.662 22.394 7.438C22.9167 7.20467 23.514 7.088 24.186 7.088C25.194 7.088 26.0107 7.33533 26.636 7.83C27.2707 8.31533 27.6207 8.99667 27.686 9.874H25.53C25.5113 9.538 25.3667 9.26267 25.096 9.048C24.8347 8.824 24.4847 8.712 24.046 8.712C23.6633 8.712 23.3553 8.81 23.122 9.006C22.898 9.202 22.786 9.48667 22.786 9.86C22.786 10.1213 22.87 10.3407 23.038 10.518C23.2153 10.686 23.43 10.826 23.682 10.938C23.9433 11.0407 24.3073 11.162 24.774 11.302C25.4087 11.4887 25.9267 11.6753 26.328 11.862C26.7293 12.0487 27.0747 12.3287 27.364 12.702C27.6533 13.0753 27.798 13.5653 27.798 14.172C27.798 14.6947 27.6627 15.18 27.392 15.628C27.1213 16.076 26.7247 16.4353 26.202 16.706C25.6793 16.9673 25.0587 17.098 24.34 17.098ZM33.8653 9.132C34.4533 9.132 34.9759 9.26267 35.4333 9.524C35.8906 9.776 36.2453 10.154 36.4973 10.658C36.7586 11.1527 36.8893 11.75 36.8893 12.45V17H34.9293V12.716C34.9293 12.1 34.7753 11.6287 34.4673 11.302C34.1593 10.966 33.7393 10.798 33.2073 10.798C32.6659 10.798 32.2366 10.966 31.9193 11.302C31.6113 11.6287 31.4573 12.1 31.4573 12.716V17H29.4973V6.64H31.4573V10.21C31.7093 9.874 32.0453 9.61267 32.4653 9.426C32.8853 9.23 33.3519 9.132 33.8653 9.132ZM38.2491 13.094C38.2491 12.31 38.4031 11.6147 38.7111 11.008C39.0284 10.4013 39.4531 9.93467 39.9851 9.608C40.5264 9.28133 41.1284 9.118 41.7911 9.118C42.3698 9.118 42.8738 9.23467 43.3031 9.468C43.7418 9.70133 44.0918 9.99533 44.3531 10.35V9.244H46.3271V17H44.3531V15.866C44.1011 16.23 43.7511 16.5333 43.3031 16.776C42.8644 17.0093 42.3558 17.126 41.7771 17.126C41.1238 17.126 40.5264 16.958 39.9851 16.622C39.4531 16.286 39.0284 15.8147 38.7111 15.208C38.4031 14.592 38.2491 13.8873 38.2491 13.094ZM44.3531 13.122C44.3531 12.646 44.2598 12.24 44.0731 11.904C43.8864 11.5587 43.6344 11.2973 43.3171 11.12C42.9998 10.9333 42.6591 10.84 42.2951 10.84C41.9311 10.84 41.5951 10.9287 41.2871 11.106C40.9791 11.2833 40.7271 11.5447 40.5311 11.89C40.3444 12.226 40.2511 12.6273 40.2511 13.094C40.2511 13.5607 40.3444 13.9713 40.5311 14.326C40.7271 14.6713 40.9791 14.9373 41.2871 15.124C41.6044 15.3107 41.9404 15.404 42.2951 15.404C42.6591 15.404 42.9998 15.3153 43.3171 15.138C43.6344 14.9513 43.8864 14.69 44.0731 14.354C44.2598 14.0087 44.3531 13.598 44.3531 13.122ZM50.2014 10.448C50.4534 10.0373 50.7801 9.71533 51.1814 9.482C51.5921 9.24867 52.0587 9.132 52.5814 9.132V11.19H52.0634C51.4474 11.19 50.9807 11.3347 50.6634 11.624C50.3554 11.9133 50.2014 12.4173 50.2014 13.136V17H48.2414V9.244H50.2014V10.448ZM61.1115 12.954C61.1115 13.234 61.0929 13.486 61.0555 13.71H55.3855C55.4322 14.27 55.6282 14.7087 55.9735 15.026C56.3189 15.3433 56.7435 15.502 57.2475 15.502C57.9755 15.502 58.4935 15.1893 58.8015 14.564H60.9155C60.6915 15.3107 60.2622 15.9267 59.6275 16.412C58.9929 16.888 58.2135 17.126 57.2895 17.126C56.5429 17.126 55.8709 16.9627 55.2735 16.636C54.6855 16.3 54.2235 15.8287 53.8875 15.222C53.5609 14.6153 53.3975 13.9153 53.3975 13.122C53.3975 12.3193 53.5609 11.6147 53.8875 11.008C54.2142 10.4013 54.6715 9.93467 55.2595 9.608C55.8475 9.28133 56.5242 9.118 57.2895 9.118C58.0269 9.118 58.6849 9.27667 59.2635 9.594C59.8515 9.91133 60.3042 10.364 60.6215 10.952C60.9482 11.5307 61.1115 12.198 61.1115 12.954ZM59.0815 12.394C59.0722 11.89 58.8902 11.4887 58.5355 11.19C58.1809 10.882 57.7469 10.728 57.2335 10.728C56.7482 10.728 56.3375 10.8773 56.0015 11.176C55.6749 11.4653 55.4742 11.8713 55.3995 12.394H59.0815Z" fill="white"/>
<path d="M2.73438 16V7.82422H0.191406V16H2.73438ZM1.44922 6.73047C2.26953 6.73047 2.92578 6.04688 2.92578 5.22656C2.92578 4.43359 2.26953 3.77734 1.44922 3.77734C0.65625 3.77734 0 4.43359 0 5.22656C0 6.04688 0.65625 6.73047 1.44922 6.73047ZM12.2227 16H12.25V11.5156C12.25 9.32812 11.7578 7.63281 9.1875 7.63281C7.95703 7.63281 7.13672 8.31641 6.78125 8.94531H6.75391V7.82422H4.32031V16H6.86328V11.9531C6.86328 10.8867 7.05469 9.875 8.36719 9.875C9.67969 9.875 9.70703 11.0781 9.70703 12.0352V16H12.2227Z" fill="white"/>
</svg>
