<svg width="65" height="65" viewBox="0 0 65 65" fill="none" xmlns="http://www.w3.org/2000/svg">
<g clip-path="url(#clip0_6754_4210)">
<path d="M42.0056 9.711C49.2655 12.3722 55.2368 18.3068 57.9516 25.5637C58.1999 26.2256 58.9508 26.5474 59.5891 26.2997C60.2445 26.0508 60.5741 25.3177 60.3251 24.6623C58.8215 20.7033 56.5408 17.1777 53.5466 14.1833C50.4932 11.1298 46.9079 8.82445 42.8904 7.33113C42.2336 7.08715 41.5024 7.42139 41.2583 8.07881C41.0137 8.73598 41.3484 9.46664 42.0056 9.711Z" fill="#020288"/>
<path d="M62.1408 32.5259C62.0772 31.8277 61.4607 31.3135 60.7614 31.3771C60.0632 31.4407 59.5488 32.0584 59.6124 32.7566C61.3792 48.7945 47.3963 63.2813 31.6062 62.4271C30.3339 58.7333 28.7446 55.5698 33.0452 53.2085C33.6492 52.8525 33.8505 52.0744 33.4947 51.4704C33.1389 50.8664 32.3608 50.6651 31.7567 51.0208C25.9584 54.4691 27.6655 58.8552 28.8447 62.1972C18.7017 61.0942 9.00322 52.8289 6.35703 42.806C7.85809 41.794 8.33704 40.726 10.2653 41.7203C11.6639 42.3602 15.9194 44.3078 18.4791 41.7656C19.9796 40.2753 20.4816 37.6275 18.2212 35.0713C16.6341 33.1993 15.3336 31.2376 16.778 29.9913C17.8132 29.0969 19.1989 29.6092 21.5591 30.5917C22.5983 31.0243 23.673 31.4717 24.8415 31.7848C29.9903 33.1647 33.761 27.7808 30.6793 23.3228C27.2999 18.003 20.9046 19.4397 15.2883 16.7832C14.6627 16.4669 13.899 16.7181 13.5829 17.3438C13.2669 17.9696 13.5178 18.733 14.1436 19.0492C16.4486 20.2135 18.7797 20.6303 20.4819 20.9347C24.3082 21.5835 27.1683 22.4034 28.563 24.7252C29.4147 26.0106 29.4907 27.3211 28.7715 28.3207C27.196 30.446 24.5301 29.0523 22.5349 28.2479C20.0061 27.1952 17.3911 26.1067 15.1184 28.0702C14.2147 28.8509 13.6977 29.8502 13.6232 30.96C13.5095 32.6525 14.4167 34.6016 16.3195 36.7533C17.883 38.5214 16.9985 39.658 16.6902 39.9643C15.8316 40.8171 13.9753 40.6261 11.3219 39.4118C8.44379 38.0944 7.04517 39.0925 5.72271 40.1099C4.71557 34.5914 5.40498 28.7679 7.93489 23.4794C8.23739 22.847 7.96993 22.0891 7.33751 21.7866C6.70523 21.4843 5.94714 21.7514 5.64465 22.3839C-3.93118 41.5982 11.0106 65.3911 32.5008 64.9932C49.5146 65.3864 64.0643 49.4304 62.1408 32.5259Z" fill="#020288"/>
<path d="M14.3533 14.5283C14.6385 14.5283 14.9253 14.4327 15.1622 14.2366C19.2982 10.812 24.3146 8.70795 29.6687 8.1517C31.3296 7.91965 31.0909 5.51617 29.4063 5.62648C23.552 6.23465 18.0665 8.53569 13.5429 12.2809C12.6281 13.0299 13.1837 14.5401 14.3533 14.5283Z" fill="#020288"/>
<path d="M31.1196 38.6236C31.1196 39.3246 31.6879 39.8929 32.389 39.8929C43.1058 39.7359 39.1123 30.3264 42.5648 25.4127C43.527 24.1242 45.4184 23.3038 46.6968 23.6213C47.1152 23.7253 47.6907 23.9875 47.8574 25.0595C48.0648 26.3938 48.3558 27.4336 48.747 28.2381C49.0535 28.8685 49.813 29.1311 50.4437 28.8246C51.0742 28.5179 51.3367 27.7584 51.0301 27.1279C50.755 26.5622 50.5316 25.7352 50.3662 24.6697C49.5574 19.5576 43.0756 20.3512 40.5306 23.894C38.9819 25.9684 38.6172 28.5596 38.2951 30.846C37.7435 34.7651 37.379 37.3543 32.389 37.3543C31.6879 37.3542 31.1196 37.9225 31.1196 38.6236Z" fill="#020288"/>
<path fill-rule="evenodd" clip-rule="evenodd" d="M12.0636 15.8001C12.0636 17.4606 10.7175 18.8068 9.05695 18.8068C5.07295 18.6594 5.07397 12.9403 9.05695 12.7934C10.7175 12.7934 12.0636 14.1395 12.0636 15.8001ZM9.05695 7.38135C4.40741 7.38135 0.638184 11.1506 0.638184 15.8001C0.638184 20.4622 6.14483 26.3008 9.05695 29.6411C11.9691 26.3008 17.4757 20.4624 17.4757 15.8001C17.4757 11.1506 13.7065 7.38135 9.05695 7.38135Z" fill="#FFBEBC"/>
<path fill-rule="evenodd" clip-rule="evenodd" d="M38.7448 8.41877C38.7448 10.0793 37.3986 11.4255 35.7381 11.4255C31.7541 11.2781 31.7551 5.55894 35.7381 5.41207C37.3986 5.41207 38.7448 6.75814 38.7448 8.41877ZM35.7381 0C31.0886 0 27.3193 3.76922 27.3193 8.41877C27.3193 13.081 32.826 18.9193 35.7381 22.2598C38.6502 18.9195 44.1569 13.081 44.1569 8.41877C44.1569 3.76922 40.3877 0 35.7381 0Z" fill="#FFBEBC"/>
<path fill-rule="evenodd" clip-rule="evenodd" d="M58.9499 30.2564C58.9499 31.917 57.6037 33.2631 55.9432 33.2631C51.9592 33.1157 51.9602 27.3965 55.9432 27.2497C57.6037 27.2497 58.9499 28.5959 58.9499 30.2564ZM55.9432 21.8378C51.2936 21.8378 47.5244 25.607 47.5244 30.2564C47.5244 34.9187 53.0311 40.7571 55.9432 44.0974C58.8553 40.7571 64.362 34.9187 64.362 30.2564C64.362 25.6069 60.5927 21.8378 55.9432 21.8378Z" fill="#FFBEBC"/>
<path fill-rule="evenodd" clip-rule="evenodd" d="M34.0329 43.7444C34.0329 45.4049 32.6867 46.7511 31.0262 46.7511C27.0422 46.6038 27.0432 40.8846 31.0262 40.7378C32.6868 40.7378 34.0329 42.084 34.0329 43.7444ZM31.0262 35.3258C26.3766 35.3258 22.6074 39.095 22.6074 43.7446C22.6074 48.4068 28.1141 54.2452 31.0262 57.5856C33.9383 54.2453 39.445 48.4068 39.445 43.7446C39.445 39.0949 35.6757 35.3258 31.0262 35.3258Z" fill="#FFBEBC"/>
</g>
<defs>
<clipPath id="clip0_6754_4210">
<rect width="65" height="65" fill="white"/>
</clipPath>
</defs>
</svg>
