<svg width="65" height="65" viewBox="0 0 65 65" fill="none" xmlns="http://www.w3.org/2000/svg">
<path d="M53.8375 60.7899C50.3058 60.7899 47.4429 57.9268 47.4429 54.3952V54.2369C47.4429 50.7052 50.3059 47.8423 53.8375 47.8423C57.3692 47.8423 60.2321 50.7053 60.2321 54.2369V54.3952C60.2321 57.9268 57.3691 60.7899 53.8375 60.7899Z" fill="#AAE7FF"/>
<path d="M32.5002 24.921L10.6758 17.6844V35.7264C10.6758 38.6802 20.4469 41.0748 32.5002 41.0748C44.5535 41.0748 54.3245 38.6802 54.3245 35.7264V17.6844L32.5002 24.921Z" fill="#AAE7FF"/>
<path d="M53.8374 46.5726H11.1628C6.93668 46.5726 3.49854 50.0463 3.49854 54.316C3.49854 58.5857 6.93668 62.0594 11.1628 62.0594H53.8375C58.0636 62.0594 61.5018 58.6212 61.5018 54.3951V54.2368C61.5016 50.0108 58.0635 46.5726 53.8374 46.5726ZM58.9626 54.3951C58.9626 57.2211 56.6635 59.5203 53.8374 59.5203H11.1628C8.33672 59.5203 6.0376 57.1857 6.0376 54.316C6.0376 51.4464 8.33672 49.1117 11.1628 49.1117H53.8375C56.6636 49.1117 58.9627 51.4108 58.9627 54.2369V54.3951H58.9626Z" fill="#020288"/>
<path d="M64.13 13.3607L32.8995 3.00523C32.6402 2.91916 32.3597 2.91916 32.1004 3.00523L0.869883 13.3607C0.350645 13.5328 0 14.0184 0 14.5656C0 15.1127 0.350645 15.5983 0.87001 15.7706L32.1005 26.1261C32.2301 26.1691 32.3652 26.1906 32.5 26.1906C32.6348 26.1906 32.7699 26.1691 32.8995 26.1261L59.4985 17.3064V32.8595C59.4985 33.5607 60.067 34.1291 60.768 34.1291C61.4691 34.1291 62.0375 33.5607 62.0375 32.8595V16.4644L64.13 15.7706C64.6494 15.5985 65 15.1127 65 14.5656C65 14.0184 64.6494 13.5328 64.13 13.3607ZM32.5 23.5836L5.30321 14.5656L32.5 5.54772L59.6968 14.5657L32.5 23.5836Z" fill="#020288"/>
</svg>
