<svg width="53" height="65" viewBox="0 0 53 65" fill="none" xmlns="http://www.w3.org/2000/svg">
<path d="M48.8418 10.8744C48.1408 10.8744 47.5723 11.4429 47.5723 12.1439V27.053C47.5723 27.7541 48.1408 28.3226 48.8418 28.3226C49.5428 28.3226 50.1113 27.7541 50.1113 27.053V12.1439C50.1113 11.4429 49.543 10.8744 48.8418 10.8744Z" fill="#020288"/>
<path d="M22.1753 33.1316C22.8763 33.1316 23.4448 32.5631 23.4448 31.8621V29.8717C23.4448 29.1707 22.8763 28.6022 22.1753 28.6022C21.4743 28.6022 20.9058 29.1707 20.9058 29.8717V31.8621C20.9058 32.5631 21.4741 33.1316 22.1753 33.1316Z" fill="#020288"/>
<path d="M32.0947 31.8621V29.8717C32.0947 29.1707 31.5262 28.6022 30.8252 28.6022C30.1242 28.6022 29.5557 29.1707 29.5557 29.8717V31.8621C29.5557 32.5631 30.1242 33.1316 30.8252 33.1316C31.5262 33.1316 32.0947 32.5631 32.0947 31.8621Z" fill="#020288"/>
<path d="M26.5004 39.4504C27.3587 39.4504 28.2171 39.1238 28.8705 38.4703C29.3662 37.9747 29.3664 37.1708 28.8706 36.6749C28.3751 36.1793 27.5711 36.1792 27.0752 36.6748C26.7581 36.9917 26.2426 36.9917 25.9254 36.6748C25.4298 36.1789 24.6258 36.1791 24.1301 36.6749C23.6343 37.1707 23.6344 37.9746 24.1302 38.4703C24.7837 39.1238 25.6421 39.4504 26.5004 39.4504Z" fill="#020288"/>
<path d="M31.2441 45.4312C35.3491 43.7793 38.2664 40.1214 39.0211 35.8431C39.1686 35.8605 39.3182 35.8691 39.4691 35.8691C41.5458 35.8691 43.2355 34.1795 43.2355 32.1028C43.2355 30.0262 41.5458 28.3366 39.4691 28.3366C39.3835 28.3366 39.2984 28.3394 39.2137 28.345V25.5569H40.7422C41.4433 25.5569 42.0118 24.9884 42.0118 24.2873V12.9923C42.0118 12.2913 41.4433 11.7228 40.7422 11.7228C40.0412 11.7228 39.4727 12.2913 39.4727 12.9923V23.0178H37.9442C37.2432 23.0178 36.6747 23.5863 36.6747 24.2873V24.703H30.3337C28.2794 24.703 26.608 23.0318 26.608 20.9774C26.608 20.2764 26.0395 19.7079 25.3385 19.7079C24.6375 19.7079 24.069 20.2764 24.069 20.9774C24.069 24.4317 26.8793 27.242 30.3337 27.242H36.6747V30.1259C36.6747 30.61 36.95 31.0519 37.3845 31.2654C37.8189 31.4787 38.3369 31.4267 38.7201 31.1307C38.8708 31.0143 39.1229 30.8757 39.469 30.8757C40.1457 30.8757 40.6963 31.4262 40.6963 32.1028C40.6963 32.7795 40.1457 33.3301 39.469 33.3301C39.1205 33.3301 38.8671 33.1898 38.7159 33.072C38.3399 32.7791 37.8317 32.7215 37.4002 32.9224C36.9683 33.1234 36.6852 33.5493 36.6672 34.0254C36.5157 38.0268 34.0149 41.5792 30.296 43.0758C28.5838 43.7649 27.6451 45.6339 28.1128 47.4233L28.3441 48.3086H24.656L24.8873 47.4233C25.355 45.6339 24.4163 43.765 22.7041 43.0756C18.9853 41.5792 16.4845 38.0267 16.3329 34.0254C16.3148 33.5493 16.0318 33.1234 15.5999 32.9224C15.1683 32.7217 14.6602 32.7792 14.2842 33.072C14.1331 33.1898 13.8796 33.3301 13.5311 33.3301C12.8544 33.3301 12.3038 32.7795 12.3038 32.1028C12.3038 31.4262 12.8544 30.8757 13.5311 30.8757C13.8773 30.8757 14.1294 31.0143 14.28 31.1307C14.6634 31.4267 15.1814 31.4787 15.6157 31.2654C16.0501 31.0519 16.3255 30.6101 16.3255 30.1259V24.2875C16.3255 23.5864 15.757 23.0179 15.0559 23.0179H13.5274V12.9924C13.5274 12.2914 12.9589 11.7229 12.2579 11.7229C11.5568 11.7229 10.9883 12.2914 10.9883 12.9924V24.2875C10.9883 24.9885 11.5568 25.557 12.2579 25.557H13.7864V28.3451C13.7017 28.3395 13.6167 28.3368 13.531 28.3368C11.4543 28.3368 9.76465 30.0264 9.76465 32.1029C9.76465 34.1796 11.4543 35.8693 13.531 35.8693C13.6819 35.8693 13.8315 35.8606 13.979 35.8432C14.7336 40.1216 17.651 43.7796 21.7559 45.4312C22.286 45.6447 22.576 46.2251 22.4306 46.7815L22.0315 48.3088H17.2079C15.3877 48.3088 13.6758 49.0154 12.3846 50.3008C11.0822 51.5972 10.3649 53.3243 10.3649 55.1641V63.7304C10.3649 64.4314 10.9334 64.9999 11.6344 64.9999H41.3653C42.0664 64.9999 42.6349 64.4314 42.6349 63.7304V55.164C42.6349 53.3243 41.9176 51.5971 40.6152 50.3007C39.3238 49.0151 37.6122 48.3085 35.7974 48.3085C35.7869 48.3085 35.776 48.3086 35.7654 48.3086H30.9682L30.5691 46.7814C30.4241 46.225 30.7141 45.6445 31.2441 45.4312ZM28.3322 50.8477L26.5002 52.6796L24.6683 50.8477H28.3322ZM35.7917 50.8477C36.936 50.8477 38.0122 51.292 38.8242 52.1001C39.6445 52.9167 40.0962 54.0046 40.0962 55.164V62.4609H12.9043V55.164C12.9043 54.0046 13.356 52.9167 14.1763 52.1001C14.9883 51.292 16.0643 50.8477 17.2145 50.8477H21.0776L25.6027 55.3728C25.8506 55.6206 26.1755 55.7447 26.5004 55.7447C26.8252 55.7447 27.1501 55.6206 27.3981 55.3728L31.9232 50.8477H35.7917Z" fill="#020288"/>
<path d="M26.5002 23.0914L0.95459 11.5458L26.5002 0L52.0459 11.5458L26.5002 23.0914Z" fill="#A4FCC4"/>
</svg>
