<svg width="65" height="65" viewBox="0 0 65 65" fill="none" xmlns="http://www.w3.org/2000/svg">
<g clip-path="url(#clip0_6754_4238)">
<path d="M37.595 48.7067L32.5429 45.1447L27.4907 48.7067L29.9939 52.2549H29.9912V63.7255H35.0944V52.2549H35.0919L37.595 48.7067Z" fill="#E2C4FF"/>
<path d="M45.9252 38.6865H39.5526V33.6987C43.3734 31.3398 45.9252 27.1145 45.9252 22.304V11.4707C45.9252 10.7667 45.3545 8.92163 44.6507 8.92163C43.9469 8.92163 43.3762 9.49223 43.3762 10.1961V22.304C43.3762 28.2775 38.5163 33.1373 32.5428 33.1373C26.5693 33.1373 21.7095 28.2775 21.7095 22.304V10.1961C21.7095 9.49223 21.1389 8.92163 20.435 8.92163C19.7311 8.92163 19.1605 10.7667 19.1605 11.4707V22.304C19.1605 27.1145 21.7123 31.3398 25.533 33.6987V38.6865H19.1605C12.8067 38.6865 7.60449 43.8528 7.60449 50.2425V63.7256C7.60449 64.4295 8.17509 65.0001 8.879 65.0001H56.1213C56.8251 65.0001 57.3958 64.4295 57.3958 63.7256V50.1571C57.3958 43.7935 52.2108 38.6865 45.9252 38.6865ZM43.7887 41.2356L39.2056 48.284L34.5798 45.0216L38.7689 41.2356H43.7887ZM37.0036 34.9209V39.3952L32.5428 43.4267L28.0821 39.3952V34.9209C30.8807 35.9133 34.0455 35.9699 37.0036 34.9209ZM26.3166 41.2356L30.5058 45.0216L25.8799 48.284L21.2968 41.2356H26.3166ZM54.8468 62.4511H10.1535V50.2425C10.1535 45.5717 13.7276 41.7208 18.2845 41.2788L24.4645 50.783C24.8582 51.3884 25.6769 51.5462 26.2675 51.1298L32.5428 46.7044L38.818 51.1298C39.4085 51.5462 40.2274 51.3886 40.6212 50.783L46.801 41.279C51.3108 41.7206 54.8468 45.5333 54.8468 50.1571V62.4511Z" fill="#020288"/>
<path d="M28.5604 26.6423C30.905 28.518 34.1805 28.5182 36.5254 26.6423C37.0749 26.2026 37.1641 25.4005 36.7244 24.8508C36.285 24.3014 35.4829 24.212 34.933 24.6519C33.5258 25.7776 31.56 25.7776 30.1528 24.6519C29.603 24.212 28.8011 24.3011 28.3614 24.8508C27.9217 25.4005 28.0107 26.2026 28.5604 26.6423Z" fill="#020288"/>
<path d="M26.8077 20.3923C27.5116 20.3923 28.0822 19.8217 28.0822 19.1177V17.8432C28.0822 17.1393 27.5116 16.5687 26.8077 16.5687C26.1038 16.5687 25.5332 17.1393 25.5332 17.8432V19.1177C25.5332 19.8217 26.1038 20.3923 26.8077 20.3923Z" fill="#020288"/>
<path d="M38.2779 20.3923C38.9817 20.3923 39.5524 19.8217 39.5524 19.1177V17.8432C39.5524 17.1393 38.9817 16.5687 38.2779 16.5687C37.574 16.5687 37.0034 17.1393 37.0034 17.8432V19.1177C37.0034 19.8217 37.574 20.3923 38.2779 20.3923Z" fill="#020288"/>
<path d="M15.337 2.54902H20.4351C21.139 2.54902 21.7096 1.97842 21.7096 1.27451C21.7096 0.570598 19.6943 0 18.9904 0H15.337C14.6331 0 14.0625 0.570598 14.0625 1.27451C14.0625 1.97842 14.6331 2.54902 15.337 2.54902Z" fill="#E2C4FF"/>
<path d="M44.6505 2.54902H48.474V6.37255C48.474 7.07646 49.0447 7.64706 49.7485 7.64706C50.4523 7.64706 51.023 7.07646 51.023 6.37255V1.27451C51.023 0.570598 50.4523 0 49.7485 0H46.2647C45.5609 0 43.376 0.570598 43.376 1.27451C43.376 1.97842 43.9467 2.54902 44.6505 2.54902Z" fill="#E2C4FF"/>
<path d="M45.9254 11.4706H19.1606V0H45.9254V11.4706Z" fill="#E2C4FF"/>
</g>
<defs>
<clipPath id="clip0_6754_4238">
<rect width="65" height="65" fill="white"/>
</clipPath>
</defs>
</svg>
