<svg width="12" height="10" viewBox="0 0 12 10" fill="none" xmlns="http://www.w3.org/2000/svg">
<path d="M11.1998 1.67029C10.8174 1.83527 10.4012 1.95401 9.97245 2.00025C10.4175 1.73583 10.7508 1.31808 10.9098 0.825393C10.4922 1.07385 10.0346 1.24807 9.5575 1.34033C9.35808 1.12714 9.11689 0.957302 8.84897 0.8414C8.58104 0.725498 8.29211 0.666017 8.00019 0.666662C6.81908 0.666662 5.8692 1.62405 5.8692 2.79891C5.8692 2.96389 5.88919 3.12887 5.92169 3.2876C4.15315 3.19511 2.57584 2.35021 1.52722 1.05661C1.33615 1.38297 1.23602 1.75456 1.23725 2.13274C1.23725 2.87265 1.61346 3.52507 2.18714 3.90877C1.84906 3.89546 1.5189 3.80253 1.2235 3.63755V3.6638C1.2235 4.69993 1.95592 5.55857 2.93205 5.75605C2.74877 5.80366 2.56023 5.82801 2.37087 5.82854C2.23213 5.82854 2.1009 5.81479 1.96841 5.79605C2.23838 6.64094 3.02454 7.25462 3.96067 7.27462C3.22826 7.8483 2.31087 8.18576 1.31474 8.18576C1.13601 8.18576 0.971034 8.17951 0.799805 8.15951C1.74469 8.76569 2.86581 9.11565 4.07316 9.11565C7.99269 9.11565 10.1374 5.86854 10.1374 3.05013C10.1374 2.95764 10.1374 2.86515 10.1312 2.77266C10.5461 2.46895 10.9098 2.09274 11.1998 1.67029Z" fill="#C1C8CA"/>
</svg>
